<svg xmlns="http://www.w3.org/2000/svg" xmlns:xlink="http://www.w3.org/1999/xlink" width="1920" zoomAndPan="magnify" viewBox="0 0 1440 809.999993" height="1080" preserveAspectRatio="xMidYMid meet" version="1.0"><defs><clipPath id="77f9f03c3f"><path d="M 1202 680 L 1227.652344 680 L 1227.652344 732 L 1202 732 Z M 1202 680 " clip-rule="nonzero"/></clipPath><clipPath id="46c7db120f"><path d="M 1090 734 L 1138 734 L 1138 753 L 1090 753 Z M 1090 734 " clip-rule="nonzero"/></clipPath><clipPath id="6c4bdf7df2"><path d="M 319 732 L 371 732 L 371 753 L 319 753 Z M 319 732 " clip-rule="nonzero"/></clipPath><clipPath id="1c9ba98664"><path d="M 395 732 L 447 732 L 447 753 L 395 753 Z M 395 732 " clip-rule="nonzero"/></clipPath></defs><path fill="#1b3a3c" d="M 505.6875 706.789062 L 415.332031 706.789062 L 391.300781 550.410156 L 534.527344 550.410156 L 505.6875 706.789062 " fill-opacity="1" fill-rule="nonzero"/><path fill="#2f3639" d="M 1071.324219 620.328125 L 1019.085938 620.328125 L 1019.085938 607.628906 L 1071.324219 607.628906 L 1071.324219 620.328125 " fill-opacity="1" fill-rule="nonzero"/><path fill="#4a565c" d="M 1010.019531 707.113281 L 1045.210938 467.371094 L 1080.390625 707.113281 L 1092.167969 707.113281 L 1050.933594 431.179688 L 1039.476562 431.179688 L 998.238281 707.113281 L 1010.019531 707.113281 " fill-opacity="1" fill-rule="nonzero"/><path fill="#2f3639" d="M 614.121094 620.328125 L 561.878906 620.328125 L 561.878906 607.628906 L 614.121094 607.628906 L 614.121094 620.328125 " fill-opacity="1" fill-rule="nonzero"/><path fill="#4a565c" d="M 552.804688 707.113281 L 587.996094 467.371094 L 623.183594 707.113281 L 634.964844 707.113281 L 593.726562 431.179688 L 582.273438 431.179688 L 541.035156 707.113281 L 552.804688 707.113281 " fill-opacity="1" fill-rule="nonzero"/><path fill="#2f3639" d="M 1102.074219 438.910156 L 524.59375 438.910156 L 524.59375 413.582031 L 1102.074219 413.582031 L 1102.074219 438.910156 " fill-opacity="1" fill-rule="nonzero"/><path fill="#091413" d="M 644.425781 212.253906 L 603.136719 177.269531 L 520.265625 277.789062 L 607.613281 350.910156 L 607.265625 405.453125 L 613.953125 405.503906 L 614.320312 347.792969 L 529.652344 276.917969 L 603.984375 186.757812 L 640.097656 217.363281 L 644.425781 212.253906 " fill-opacity="1" fill-rule="nonzero"/><path fill="#1b3a3c" d="M 649.949219 207.566406 L 633.328125 225.480469 L 614.695312 208.152344 L 631.316406 190.242188 L 649.949219 207.566406 " fill-opacity="1" fill-rule="nonzero"/><path fill="#1b3a3c" d="M 717.039062 240.78125 L 680.152344 206.464844 C 666.558594 193.839844 645.316406 194.613281 632.699219 208.207031 C 620.074219 221.796875 620.859375 243.054688 634.441406 255.683594 L 674.085938 289.09375 L 717.039062 240.78125 " fill-opacity="1" fill-rule="nonzero"/><path fill="#1b3a3c" d="M 637.75 413.582031 L 580.617188 413.582031 L 580.617188 397.367188 L 637.75 397.367188 L 637.75 413.582031 " fill-opacity="1" fill-rule="nonzero"/><path fill="#1b3a3c" d="M 534.527344 275.429688 C 534.527344 280.421875 530.492188 284.460938 525.503906 284.460938 C 520.515625 284.460938 516.46875 280.421875 516.46875 275.429688 C 516.46875 270.4375 520.515625 266.390625 525.503906 266.390625 C 530.492188 266.390625 534.527344 270.4375 534.527344 275.429688 " fill-opacity="1" fill-rule="nonzero"/><path fill="#1b3a3c" d="M 612.453125 182.007812 C 612.453125 187 608.417969 191.046875 603.429688 191.046875 C 598.441406 191.046875 594.398438 187 594.398438 182.007812 C 594.398438 177.015625 598.441406 172.980469 603.429688 172.980469 C 608.417969 172.980469 612.453125 177.015625 612.453125 182.007812 " fill-opacity="1" fill-rule="nonzero"/><path fill="#1b3a3c" d="M 618.207031 350.457031 C 618.207031 355.449219 614.171875 359.496094 609.183594 359.496094 C 604.195312 359.496094 600.152344 355.449219 600.152344 350.457031 C 600.152344 345.464844 604.195312 341.425781 609.183594 341.425781 C 614.171875 341.425781 618.207031 345.464844 618.207031 350.457031 " fill-opacity="1" fill-rule="nonzero"/><path fill="#b6b5b5" d="M 1048.425781 339.917969 C 1048.425781 345.6875 1043.761719 350.351562 1038 350.351562 L 742.117188 350.351562 C 736.363281 350.351562 731.703125 345.6875 731.703125 339.917969 L 731.703125 186.675781 C 731.703125 180.90625 736.363281 176.230469 742.117188 176.230469 L 1038 176.230469 C 1043.761719 176.230469 1048.425781 180.90625 1048.425781 186.675781 L 1048.425781 339.917969 " fill-opacity="1" fill-rule="nonzero"/><path fill="#1b3a3c" d="M 1048.425781 326.589844 L 1048.425781 186.675781 C 1048.425781 180.90625 1043.761719 176.230469 1038 176.230469 L 742.117188 176.230469 C 736.363281 176.230469 731.703125 180.90625 731.703125 186.675781 L 731.703125 326.589844 L 1048.425781 326.589844 " fill-opacity="1" fill-rule="nonzero"/><path fill="#4b5b65" d="M 1036.785156 315.472656 L 743.34375 315.472656 L 743.34375 187.964844 L 1036.785156 187.964844 L 1036.785156 315.472656 " fill-opacity="1" fill-rule="nonzero"/><path fill="#d5d4d5" d="M 911.71875 361.953125 C 911.71875 356.363281 911.804688 361.488281 911.804688 350.351562 L 856.292969 350.351562 C 856.292969 361.488281 856.378906 356.203125 856.378906 361.953125 C 856.378906 382.515625 835.605469 392.753906 818.914062 399.714844 L 951.792969 399.714844 C 935.089844 392.753906 911.71875 381.867188 911.71875 361.953125 " fill-opacity="1" fill-rule="nonzero"/><path fill="#1b3a3c" d="M 951.792969 413.582031 L 818.914062 413.582031 L 818.914062 399.714844 L 951.792969 399.714844 L 951.792969 413.582031 " fill-opacity="1" fill-rule="nonzero"/><path fill="#f03946" d="M 1040.292969 216.554688 L 999.582031 216.554688 L 999.582031 182.007812 L 1040.292969 182.007812 L 1040.292969 216.554688 " fill-opacity="1" fill-rule="nonzero"/><path fill="#fbbf24" d="M 1024.535156 185.5 L 1015.226562 185.5 L 1015.226562 176.230469 L 1024.535156 176.230469 L 1024.535156 185.5 " fill-opacity="1" fill-rule="nonzero"/><path fill="#4a565c" d="M 935.445312 746.523438 C 932.398438 746.523438 929.597656 744.511719 928.730469 741.4375 L 885.550781 587.640625 C 884.515625 583.9375 886.675781 580.078125 890.382812 579.042969 C 894.09375 578.003906 897.941406 580.152344 898.988281 583.867188 L 942.164062 737.664062 C 943.199219 741.367188 941.042969 745.226562 937.332031 746.261719 C 936.703125 746.441406 936.066406 746.523438 935.445312 746.523438 " fill-opacity="1" fill-rule="nonzero"/><path fill="#2f3639" d="M 901.144531 719.71875 C 898.097656 719.71875 895.296875 717.707031 894.4375 714.621094 L 858.789062 587.640625 C 857.738281 583.9375 859.898438 580.078125 863.609375 579.042969 C 867.308594 578.003906 871.164062 580.152344 872.210938 583.867188 L 907.863281 710.847656 C 908.902344 714.570312 906.742188 718.417969 903.03125 719.457031 C 902.402344 719.636719 901.765625 719.71875 901.144531 719.71875 " fill-opacity="1" fill-rule="nonzero"/><path fill="#4a565c" d="M 691.21875 746.523438 C 690.589844 746.523438 689.960938 746.441406 689.332031 746.261719 C 685.621094 745.226562 683.453125 741.367188 684.5 737.664062 L 727.6875 583.867188 C 728.726562 580.152344 732.570312 578.003906 736.28125 579.042969 C 739.992188 580.078125 742.148438 583.9375 741.101562 587.640625 L 697.925781 741.4375 C 697.054688 744.511719 694.269531 746.523438 691.21875 746.523438 " fill-opacity="1" fill-rule="nonzero"/><path fill="#2f3639" d="M 725.519531 719.71875 C 724.898438 719.71875 724.261719 719.636719 723.632812 719.457031 C 719.921875 718.417969 717.761719 714.570312 718.800781 710.847656 L 754.453125 583.867188 C 755.5 580.152344 759.347656 578.003906 763.054688 579.042969 C 766.765625 580.078125 768.925781 583.9375 767.886719 587.640625 L 732.226562 714.621094 C 731.367188 717.707031 728.566406 719.71875 725.519531 719.71875 " fill-opacity="1" fill-rule="nonzero"/><path fill="#fbbf24" d="M 922.921875 564.453125 C 897.574219 503.625 909.101562 431.492188 914.457031 406.082031 C 915.847656 403.21875 916.644531 400.03125 916.644531 396.644531 C 916.644531 384.710938 906.984375 375.03125 895.058594 375.03125 L 732.058594 375.03125 C 720.132812 375.03125 710.460938 384.710938 710.460938 396.644531 C 710.460938 400.03125 711.265625 403.21875 712.660156 406.082031 C 718.003906 431.492188 729.53125 503.625 704.191406 564.453125 C 700.902344 567.925781 699.128906 571.605469 699.128906 575.433594 C 699.128906 596.019531 750.367188 612.707031 813.558594 612.707031 C 876.75 612.707031 927.984375 596.019531 927.984375 575.433594 C 927.984375 571.605469 926.203125 567.925781 922.921875 564.453125 " fill-opacity="1" fill-rule="nonzero"/><path fill="#f79890" d="M 1209.226562 682.207031 L 1202.898438 698.273438 L 1189.722656 693.082031 L 1196.054688 677.023438 L 1209.226562 682.207031 " fill-opacity="1" fill-rule="nonzero"/><g clip-path="url(#77f9f03c3f)"><path fill="#4746a5" d="M 1202.46875 699.363281 L 1209.792969 680.789062 L 1219.023438 684.429688 L 1227.242188 687.667969 L 1209.96875 731.519531 C 1209.96875 731.519531 1203.398438 732.609375 1202.832031 720.652344 C 1202.371094 711.234375 1202.46875 699.363281 1202.46875 699.363281 " fill-opacity="1" fill-rule="nonzero"/></g><path fill="#fcd375" d="M 1064.640625 358.761719 C 1064.640625 358.761719 1049.707031 357.589844 1044.046875 382.78125 C 1038.597656 407.046875 1022.53125 459.117188 1052.847656 469.226562 C 1052.847656 469.226562 1062.164062 445.765625 1066.085938 416.246094 C 1068.945312 394.660156 1067.449219 366.417969 1064.640625 358.761719 " fill-opacity="1" fill-rule="nonzero"/><path fill="#8ab4e4" d="M 1115.949219 423.136719 C 1115.949219 423.136719 1105.445312 534.878906 1104.074219 571.554688 C 1102.605469 610.578125 1115.949219 719.992188 1115.949219 719.992188 L 1139.390625 719.992188 C 1139.390625 719.992188 1154.136719 609.484375 1158.734375 571.554688 C 1167.339844 500.554688 1166.59375 423.136719 1166.59375 423.136719 L 1115.949219 423.136719 " fill-opacity="1" fill-rule="nonzero"/><path fill="#f79890" d="M 1136.109375 734.246094 L 1118.871094 734.246094 L 1118.871094 720.074219 L 1136.109375 720.074219 L 1136.109375 734.246094 " fill-opacity="1" fill-rule="nonzero"/><g clip-path="url(#46c7db120f)"><path fill="#4746a5" d="M 1117.699219 734.246094 L 1137.640625 734.246094 L 1137.640625 753.007812 L 1090.542969 753.007812 C 1090.542969 753.007812 1087.140625 747.300781 1098.027344 742.382812 C 1106.609375 738.492188 1117.699219 734.246094 1117.699219 734.246094 " fill-opacity="1" fill-rule="nonzero"/></g><path fill="#8ab4e4" d="M 1104.0625 558.414062 L 1110.132812 450.128906 L 1113.464844 450.128906 L 1122.046875 423.136719 L 1055.972656 423.136719 C 1055.972656 423.136719 1046.109375 533.597656 1055.972656 562.15625 C 1096.140625 678.367188 1189.640625 694.925781 1189.640625 694.925781 L 1197.175781 674.980469 L 1104.0625 558.414062 " fill-opacity="1" fill-rule="nonzero"/><path fill="#4746a5" d="M 1169.519531 250.4375 L 1180.996094 130.011719 C 1183.070312 108.15625 1167.054688 88.734375 1145.21875 86.65625 C 1123.378906 84.582031 1103.980469 100.605469 1101.90625 122.460938 L 1090.417969 242.886719 L 1169.519531 250.4375 " fill-opacity="1" fill-rule="nonzero"/><path fill="#f57bc3" d="M 1171.019531 436.757812 C 1171.019531 436.757812 1147.691406 443.804688 1108.714844 441.90625 C 1084.488281 440.753906 1051.800781 426.996094 1051.800781 426.996094 L 1094.558594 199.605469 L 1172.800781 216.269531 L 1169.5625 324.292969 L 1171.019531 436.757812 " fill-opacity="1" fill-rule="nonzero"/><path fill="#f79890" d="M 1144.890625 210.105469 L 1148.183594 175.570312 L 1125.535156 173.410156 L 1122.488281 205.363281 L 1105.078125 201.734375 C 1102.617188 215.839844 1114.207031 226.445312 1129.84375 229.558594 C 1146.546875 232.871094 1158.535156 228.101562 1162.289062 213.878906 L 1144.890625 210.105469 " fill-opacity="1" fill-rule="nonzero"/><path fill="#d7605d" d="M 1124.164062 187.746094 C 1127.578125 189.371094 1131.300781 190.472656 1135.28125 190.859375 C 1139.273438 191.226562 1143.140625 190.859375 1146.800781 189.90625 L 1148.171875 175.570312 L 1125.527344 173.410156 L 1124.164062 187.746094 " fill-opacity="1" fill-rule="nonzero"/><path fill="#f57bc3" d="M 1213.605469 338.070312 C 1210.695312 315.816406 1209.9375 310.113281 1205.085938 267.144531 C 1201.765625 237.832031 1177.988281 218.441406 1172.800781 216.144531 C 1172.800781 216.144531 1163.261719 262.886719 1171.019531 275.554688 C 1178.121094 287.175781 1182.535156 337.871094 1182.535156 337.871094 C 1182.660156 346.273438 1189.578125 352.984375 1197.960938 352.859375 C 1206.367188 352.734375 1214.707031 346.410156 1213.605469 338.070312 " fill-opacity="1" fill-rule="nonzero"/><path fill="#f79890" d="M 1027.6875 412.027344 C 1027.6875 412.027344 1015.226562 428.828125 1030.582031 445.503906 C 1034.207031 449.425781 1039.300781 450.328125 1040.484375 447.015625 C 1041.394531 444.464844 1041.027344 441.003906 1040.902344 437.273438 C 1040.597656 428.703125 1038.703125 421.195312 1041.949219 424.992188 C 1043.3125 426.574219 1045.09375 429.523438 1047.023438 427.894531 C 1049.96875 425.402344 1036.992188 411.808594 1036.992188 411.808594 L 1027.6875 412.027344 " fill-opacity="1" fill-rule="nonzero"/><path fill="#f57bc3" d="M 1094.558594 199.480469 C 1082.757812 197.027344 1077.84375 201.933594 1065.8125 226.496094 C 1057.972656 242.457031 1035.402344 290.09375 1028.632812 317.410156 C 1022.984375 340.167969 1022.605469 410.195312 1022.605469 410.195312 C 1022.605469 410.195312 1024.566406 412.082031 1030.832031 413.507812 C 1037.9375 415.121094 1040.410156 412.21875 1040.410156 412.21875 L 1058.863281 326.902344 C 1058.863281 326.902344 1069.941406 292.921875 1084.195312 264.878906 C 1092.335938 248.835938 1095.929688 243.476562 1097.511719 240.601562 C 1108.675781 220.308594 1106.863281 202.050781 1094.558594 199.480469 " fill-opacity="1" fill-rule="nonzero"/><path fill="#fcd375" d="M 1063.675781 368.957031 C 1061.253906 368.957031 1059.09375 367.214844 1058.613281 364.742188 C 1058.078125 361.929688 1059.914062 359.234375 1062.710938 358.691406 C 1146.671875 342.675781 1158.851562 248.371094 1162.84375 217.394531 C 1163.210938 214.550781 1165.800781 212.570312 1168.628906 212.925781 C 1171.46875 213.304688 1173.460938 215.882812 1173.09375 218.714844 C 1168.847656 251.539062 1155.957031 351.433594 1064.648438 368.851562 C 1064.324219 368.925781 1064 368.957031 1063.675781 368.957031 " fill-opacity="1" fill-rule="nonzero"/><path fill="#4746a5" d="M 1127.097656 300.957031 L 1104.816406 303.800781 L 1098.761719 256.082031 L 1121.039062 253.261719 L 1127.097656 300.957031 " fill-opacity="1" fill-rule="nonzero"/><path fill="#f79890" d="M 1206.039062 325.308594 C 1212.863281 330.207031 1214.414062 339.71875 1209.507812 346.554688 C 1204.617188 353.371094 1195.121094 354.933594 1188.289062 350.027344 C 1188.289062 350.027344 1167.214844 334.863281 1160.683594 329.199219 C 1152.113281 321.730469 1128.480469 297.023438 1128.480469 297.023438 L 1133.144531 288.96875 C 1133.144531 288.96875 1159.019531 304.261719 1167.96875 308.726562 C 1177.261719 313.363281 1206.039062 325.308594 1206.039062 325.308594 " fill-opacity="1" fill-rule="nonzero"/><path fill="#f57bc3" d="M 1207.433594 324.699219 C 1201.742188 320.210938 1192.773438 318.679688 1189.398438 318.292969 C 1189.398438 318.292969 1194.566406 326.335938 1192.355469 335.523438 C 1190.75 342.203125 1183.34375 345.644531 1183.34375 345.644531 C 1185.332031 348.675781 1188.59375 350.929688 1191.347656 352.199219 C 1201.15625 356.730469 1208.242188 350.71875 1211.46875 346.230469 C 1216.78125 338.828125 1213.710938 329.628906 1207.433594 324.699219 " fill-opacity="1" fill-rule="nonzero"/><path fill="#f79890" d="M 1128.480469 297.023438 C 1128.480469 297.023438 1106.828125 297.410156 1099.578125 275.933594 C 1097.871094 270.878906 1103.917969 268.6875 1111.785156 277.507812 C 1117.121094 283.484375 1125.882812 288.003906 1124.90625 282.960938 C 1124.519531 280.914062 1123.03125 275.609375 1125.390625 274.695312 C 1128.972656 273.300781 1133.144531 288.96875 1133.144531 288.96875 L 1128.480469 297.023438 " fill-opacity="1" fill-rule="nonzero"/><path fill="#f79890" d="M 1110.476562 161.402344 C 1116.21875 181.421875 1125.074219 182.574219 1136.226562 181.957031 C 1154.597656 181.515625 1169.121094 166.257812 1168.671875 147.871094 L 1168.15625 126.152344 C 1167.726562 107.769531 1152.480469 93.222656 1134.109375 93.664062 C 1115.738281 94.101562 1103.195312 117.15625 1103.625 135.527344 C 1103.625 135.527344 1108.203125 153.460938 1110.476562 161.402344 " fill-opacity="1" fill-rule="nonzero"/><path fill="#4746a5" d="M 1134.085938 92.84375 C 1153.097656 92.382812 1168.871094 107.433594 1169.320312 126.445312 L 1169.59375 137.972656 C 1143.949219 148.835938 1113.894531 132.402344 1108.328125 118.84375 C 1108.390625 121.171875 1108.359375 123.910156 1108.316406 125.902344 C 1108.203125 131.15625 1107.125 134.605469 1100.71875 136.808594 L 1100.511719 128.101562 C 1100.058594 109.089844 1115.089844 93.304688 1134.085938 92.84375 " fill-opacity="1" fill-rule="nonzero"/><path fill="#4746a5" d="M 1157.6875 140.152344 C 1157.6875 140.152344 1148.308594 144.664062 1155.957031 158.707031 C 1160.894531 167.757812 1156.042969 174.65625 1147.554688 179.679688 C 1136.332031 186.320312 1136.277344 216.070312 1142.972656 225.34375 C 1151.285156 236.859375 1170.597656 247.449219 1192.386719 225.71875 C 1209.382812 208.804688 1194.828125 162.261719 1191.714844 142.585938 C 1188.570312 122.628906 1178.699219 84.160156 1137.324219 86.679688 L 1157.6875 140.152344 " fill-opacity="1" fill-rule="nonzero"/><path fill="#4746a5" d="M 1096.875 178.570312 C 1096.875 178.570312 1096.390625 201.796875 1087.863281 215.179688 C 1079.4375 228.414062 1096.582031 245.394531 1115.359375 236.511719 C 1126.574219 231.195312 1126.300781 223.308594 1125.703125 198.390625 L 1124.980469 181.265625 L 1096.875 178.570312 " fill-opacity="1" fill-rule="nonzero"/><path fill="#f79890" d="M 321.519531 732.996094 L 339.910156 732.996094 L 339.910156 717.882812 L 321.519531 717.882812 L 321.519531 732.996094 " fill-opacity="1" fill-rule="nonzero"/><g clip-path="url(#6c4bdf7df2)"><path fill="#4746a5" d="M 341.15625 732.996094 L 319.894531 732.996094 L 319.894531 753.007812 L 370.121094 753.007812 C 370.121094 753.007812 373.757812 746.921875 362.148438 741.667969 C 352.976562 737.539062 341.15625 732.996094 341.15625 732.996094 " fill-opacity="1" fill-rule="nonzero"/></g><path fill="#f79890" d="M 397.527344 732.996094 L 415.917969 732.996094 L 415.917969 717.882812 L 397.527344 717.882812 L 397.527344 732.996094 " fill-opacity="1" fill-rule="nonzero"/><g clip-path="url(#1c9ba98664)"><path fill="#4746a5" d="M 417.164062 732.996094 L 395.882812 732.996094 L 395.882812 753.007812 L 446.121094 753.007812 C 446.121094 753.007812 449.757812 746.921875 438.136719 741.667969 C 428.988281 737.539062 417.164062 732.996094 417.164062 732.996094 " fill-opacity="1" fill-rule="nonzero"/></g><path fill="#8ab4e4" d="M 295.988281 422.589844 L 414.074219 422.589844 C 414.074219 422.589844 421.285156 528.113281 421.285156 593.996094 C 421.285156 628.78125 417.164062 724.429688 417.164062 724.429688 L 396.289062 724.429688 C 396.289062 724.429688 357.402344 516.105469 359.800781 481.75 L 355.105469 484.6875 C 355.871094 512.121094 352.609375 568.25 349.75 619.40625 C 346.648438 674.90625 341.113281 724.429688 341.113281 724.429688 L 320.230469 724.429688 C 320.230469 724.429688 307.097656 625.972656 302.980469 592.171875 C 295.328125 528.902344 295.988281 422.589844 295.988281 422.589844 " fill-opacity="1" fill-rule="nonzero"/><path fill="#4746a5" d="M 414.460938 448.933594 C 414.191406 435.351562 411.789062 306.628906 408.300781 261.179688 C 406.527344 238.230469 411.117188 208.582031 365.761719 203.75 C 365.761719 203.75 345.546875 202.636719 338.933594 203.75 C 323.792969 206.296875 295.96875 215.285156 295.96875 247.398438 C 295.96875 294.351562 295.496094 432.5 295.917969 448.933594 L 414.460938 448.933594 " fill-opacity="1" fill-rule="nonzero"/><path fill="#8c8dcf" d="M 295.738281 247.878906 C 295.738281 265.183594 295.832031 443.765625 295.832031 443.765625 L 305.863281 443.765625 C 324.128906 443.765625 338.933594 428.945312 338.933594 410.664062 L 338.933594 203.570312 C 338.933594 203.570312 295.738281 203.75 295.738281 247.878906 " fill-opacity="1" fill-rule="nonzero"/><path fill="#8c8dcf" d="M 295.96875 325.8125 C 295.96875 308.824219 296.125 240.917969 296.125 240.917969 C 296.125 240.917969 277.15625 347.164062 264.699219 404.320312 C 260.808594 422.179688 277.222656 446.113281 295.488281 446.113281 L 295.96875 446.113281 L 295.96875 325.8125 " fill-opacity="1" fill-rule="nonzero"/><path fill="#8c8dcf" d="M 389.730469 252.042969 C 389.730469 252.042969 445.585938 278.523438 458.726562 284.46875 C 468.273438 288.792969 478.082031 285.371094 481.886719 278.472656 C 485.125 272.578125 485.902344 261.566406 472.730469 254.644531 C 459.566406 247.734375 387.925781 208.164062 387.925781 208.164062 L 389.730469 252.042969 " fill-opacity="1" fill-rule="nonzero"/><path fill="#8c8dcf" d="M 262.8125 347.113281 C 262.8125 347.113281 319.988281 254.75 328.59375 243.171875 C 333.171875 236.992188 332.691406 223.203125 327 217.761719 C 322.148438 213.113281 315.785156 207.15625 305.714844 218.117188 C 295.644531 229.066406 222.078125 325.058594 222.078125 325.058594 L 262.8125 347.113281 " fill-opacity="1" fill-rule="nonzero"/><path fill="#8c8dcf" d="M 394.539062 182.828125 C 394.539062 182.828125 445.871094 264.511719 453.402344 276.804688 C 458.894531 285.75 468.933594 288.425781 475.957031 284.835938 C 481.929688 281.785156 488.730469 273.113281 481.710938 259.984375 C 474.699219 246.863281 407.753906 171.785156 407.753906 171.785156 L 394.539062 182.828125 " fill-opacity="1" fill-rule="nonzero"/><path fill="#8c8dcf" d="M 390.484375 209.296875 C 383.191406 205.40625 365.742188 203.570312 365.742188 203.570312 L 414.460938 458.707031 C 414.460938 458.707031 433.019531 459.453125 429.804688 430.9375 C 421.691406 358.929688 421.335938 340.808594 408.246094 234.992188 C 407.417969 227.179688 405.734375 217.433594 390.484375 209.296875 " fill-opacity="1" fill-rule="nonzero"/><path fill="#f79890" d="M 405.953125 173.304688 C 405.953125 173.304688 410.667969 166.675781 405.175781 158.117188 C 402.484375 153.933594 392.78125 140.550781 383.472656 137.375 L 388.566406 178.011719 C 388.566406 178.011719 389.929688 178.484375 394.183594 178.546875 L 396.394531 181.265625 L 405.953125 173.304688 " fill-opacity="1" fill-rule="nonzero"/><path fill="#4746a5" d="M 405.175781 164.882812 L 387.875 178.546875 L 358.636719 141.507812 L 375.9375 127.832031 L 405.175781 164.882812 " fill-opacity="1" fill-rule="nonzero"/><path fill="#f79890" d="M 331.433594 110.621094 C 350.421875 80.898438 400.074219 94.636719 396.886719 136.1875 L 396.949219 135.949219 C 396.949219 135.949219 396.886719 136.441406 396.8125 137.300781 C 396.78125 137.617188 396.761719 137.917969 396.730469 138.234375 C 396.46875 141.371094 396.089844 147.347656 396.375 154.019531 C 396.488281 156.273438 397.035156 158.117188 397.871094 160.6875 C 399.171875 164.578125 395.421875 164.546875 394.601562 164.367188 C 392.308594 163.929688 390.535156 163.507812 390.535156 163.507812 C 390.371094 164.03125 390.222656 164.597656 390.074219 165.101562 C 389.070312 168.605469 387.894531 171.457031 386.574219 173.765625 C 381.253906 183.128906 373.632812 183.761719 365.761719 183.320312 L 365.761719 203.75 L 338.933594 203.75 C 338.933594 203.75 345.441406 188.625 345.96875 180.960938 C 346.238281 177.007812 339.722656 172.582031 337.25 170.148438 C 333.003906 165.953125 328.507812 160.101562 326.246094 151.386719 C 321.769531 134.1875 323.886719 122.398438 331.433594 110.621094 " fill-opacity="1" fill-rule="nonzero"/><path fill="#4746a5" d="M 311.113281 116.136719 C 311.394531 111.828125 315.148438 107.621094 324.640625 103.257812 C 335.246094 98.390625 331.894531 92.394531 339.660156 88.242188 C 345.9375 84.863281 352.738281 84.789062 358.113281 87.359375 C 361.5625 88.976562 363.007812 89.195312 372.15625 87.789062 C 379.039062 86.730469 384.878906 90.96875 386.460938 97.867188 C 387.496094 102.410156 387.613281 105.984375 396.269531 109.183594 C 406.027344 112.769531 401.550781 133.535156 392.023438 133.367188 C 385.054688 133.222656 383.902344 122.640625 376.128906 126.402344 C 368.363281 130.179688 368.898438 141.714844 358.773438 143.761719 C 356.425781 144.253906 352.757812 142.480469 351.4375 137.550781 C 350.167969 132.769531 341.703125 136.535156 341.25 142.304688 C 340.980469 145.722656 341.15625 156.367188 349.289062 153.890625 C 353.996094 152.464844 358.953125 156.523438 351.929688 161.683594 C 348.324219 164.347656 350.117188 171.332031 347.433594 174.3125 L 347.390625 174.34375 C 347.058594 174.699219 346.660156 174.992188 346.167969 175.210938 C 336.660156 179.691406 324.328125 167.390625 322.167969 164.042969 C 319.96875 160.605469 314.894531 159.542969 312.464844 152.738281 C 310.671875 147.714844 311.761719 143.109375 313.25 135.414062 C 314.75 127.734375 310.621094 123.214844 311.113281 116.136719 " fill-opacity="1" fill-rule="nonzero"/><path fill="#8c8dcf" d="M 318.007812 447.402344 C 318.007812 447.402344 269.980469 359.632812 262.8125 347.113281 C 250.066406 324.824219 229.644531 322.832031 222.078125 325.058594 C 222.078125 325.058594 212.5625 333.875 220.671875 352.933594 C 226.5 366.628906 304.257812 460.167969 304.257812 460.167969 L 318.007812 447.402344 " fill-opacity="1" fill-rule="nonzero"/><path fill="#f79890" d="M 316.363281 448.933594 C 316.363281 448.933594 322.765625 451.914062 324.964844 455.289062 L 312.371094 465.523438 C 312.371094 465.523438 308.136719 464.550781 304.90625 459.570312 L 316.363281 448.933594 " fill-opacity="1" fill-rule="nonzero"/><path fill="#4746a5" d="M 332.070312 456.222656 L 304.78125 481.402344 L 298.726562 474.828125 L 326.023438 449.636719 L 332.070312 456.222656 " fill-opacity="1" fill-rule="nonzero"/></svg>