<svg xmlns="http://www.w3.org/2000/svg" xmlns:xlink="http://www.w3.org/1999/xlink" width="1920" zoomAndPan="magnify" viewBox="0 0 1440 809.999993" height="1080" preserveAspectRatio="xMidYMid meet" version="1.0"><defs><clipPath id="57d00ef086"><path d="M 701 601.265625 L 823 601.265625 L 823 741.6875 L 701 741.6875 Z M 701 601.265625 " clipRule="nonzero"/></clipPath><clipPath id="e572843a5d"><path d="M 236.675781 510 L 334 510 L 334 628 L 236.675781 628 Z M 236.675781 510 " clipRule="nonzero"/></clipPath><clipPath id="933fd5c338"><path d="M 1043 435 L 1203.421875 435 L 1203.421875 459.476562 L 1043 459.476562 Z M 1043 435 " clipRule="nonzero"/></clipPath><clipPath id="509875d6c1"><path d="M 612.140625 510 L 926.386719 510 L 926.386719 741.6875 L 612.140625 741.6875 Z M 612.140625 510 " clipRule="nonzero"/></clipPath></defs><g clip-path="url(#57d00ef086)"><path fill="#5c3a32" d="M 701.09375 609.96875 C 729.28125 660.027344 742.214844 691.414062 756.253906 741.6875 L 822.429688 741.6875 C 822.429688 741.6875 788.867188 615.828125 789.347656 605.5625 C 789.839844 595.292969 701.09375 609.96875 701.09375 609.96875 " fill-opacity="1" fillRule="evenodd"/></g><path fill="#2bb874" d="M 348.554688 541.3125 C 348.554688 541.3125 332.800781 522.328125 317.949219 511.121094 C 303.109375 499.925781 283.332031 475.035156 283.339844 459.03125 C 283.339844 443.03125 283.316406 437.347656 275.925781 429.839844 C 268.550781 422.324219 272.734375 404.085938 279.972656 388.273438 C 287.226562 372.464844 287.664062 373.523438 286.570312 357.613281 C 285.503906 341.714844 278.488281 334.179688 283.339844 336.738281 C 288.226562 339.300781 330.847656 371.1875 335.410156 390.316406 C 339.976562 409.449219 336.242188 413.019531 345.320312 424.453125 C 354.410156 435.871094 359.148438 457.703125 351.894531 478.664062 C 344.640625 499.609375 345.605469 537.871094 348.554688 541.3125 " fill-opacity="1" fillRule="evenodd"/><path fill="#000000" d="M 356.984375 591.613281 C 352.59375 571.347656 352.378906 555.378906 342.132812 535.433594 C 333.636719 518.875 317.703125 499.371094 316.167969 481.792969 C 312.699219 441.8125 307.105469 403.117188 298.546875 363.792969 C 297.671875 359.769531 298.011719 361.703125 297.414062 357.773438 C 299.332031 362.019531 300.421875 365.726562 301.660156 370.113281 C 311.683594 405.605469 317.566406 444.921875 321.511719 481.359375 C 323.210938 497.113281 337.421875 514.46875 345.714844 528.980469 C 357.460938 549.5625 359.3125 564.667969 363.617188 586.695312 C 363.921875 588.382812 364.316406 590.019531 364.757812 591.613281 L 356.984375 591.613281 " fill-opacity="1" fillRule="evenodd"/><path fill="#2bb874" d="M 367.410156 546.460938 C 366.546875 543.289062 373.007812 514.308594 370.519531 499.601562 C 368.046875 484.886719 353.769531 465.464844 358.339844 444.582031 C 362.882812 423.660156 384.628906 402.5625 392.488281 389.210938 C 400.320312 375.875 407.832031 355.195312 409.671875 356.359375 C 410.671875 356.984375 415.929688 372.125 420.175781 388.679688 L 425.613281 419.058594 C 425.742188 421.964844 425.65625 424.511719 425.265625 426.550781 C 422.128906 443.507812 411.25 452.523438 411.027344 466.445312 C 410.824219 480.351562 410.601562 500.785156 397.894531 515.203125 C 385.164062 529.621094 374.324219 538.925781 367.410156 546.460938 " fill-opacity="1" fillRule="evenodd"/><path fill="#000000" d="M 362.976562 591.613281 C 362.738281 574.585938 363.324219 558.644531 370.042969 539.617188 C 373.425781 530.039062 376.375 513.667969 378.328125 503.511719 C 380.75 491.003906 383.09375 478.621094 383.972656 465.984375 C 384.507812 458.351562 395.257812 439.339844 399.027344 430.996094 C 405.265625 417.109375 407.5 409.695312 408.71875 394.84375 C 411.046875 406.679688 406.058594 420.710938 401.480469 431.867188 C 398.566406 439.007812 388.003906 459.867188 387.722656 465.746094 C 387.160156 478 385.445312 488.90625 383.402344 501.074219 C 381.515625 512.316406 378.628906 530.53125 375.0625 541.140625 C 368.984375 559.308594 368.628906 575.046875 369.140625 591.613281 L 362.976562 591.613281 " fill-opacity="1" fillRule="evenodd"/><path fill="#2bb874" d="M 395.480469 533.625 C 428.453125 486.769531 433.816406 479.753906 479.644531 454.625 C 479.644531 454.625 476.257812 461.058594 473.605469 468.457031 C 470.929688 475.828125 469.394531 489.640625 470.257812 497.496094 C 471.152344 505.363281 455.945312 526.886719 455.945312 526.886719 C 451.359375 536.386719 450.035156 539.394531 451.195312 547.8125 C 452.894531 559.921875 433.21875 580.988281 424.265625 588.085938 C 422.195312 589.722656 419.816406 591.273438 417.34375 592.703125 C 417.34375 592.703125 402.53125 602.519531 395.214844 609.191406 C 389.574219 614.363281 386.699219 624.417969 385.6875 628.722656 L 376.230469 628.722656 C 373.519531 604.460938 370.714844 577.867188 376.335938 559.054688 C 379.609375 548.15625 387.167969 545.417969 395.480469 533.625 " fill-opacity="1" fillRule="evenodd"/><path fill="#2d3e32" d="M 288.523438 550.863281 C 288.523438 550.863281 309.613281 556.019531 323.253906 563.945312 C 335.527344 571.050781 345.773438 588.953125 350.921875 591.613281 L 352.832031 591.613281 C 355.882812 587.445312 342.832031 542.617188 333.183594 536.269531 C 323.210938 529.6875 310.191406 527.109375 303.65625 528.054688 C 297.148438 528.980469 288.523438 550.863281 288.523438 550.863281 " fill-opacity="1" fillRule="evenodd"/><path fill="#000000" d="M 335.167969 558.515625 C 330.789062 551.777344 330.003906 550.199219 323.371094 544.746094 L 321.691406 543.398438 C 329.132812 545.761719 333.175781 551.417969 337.367188 557.050781 C 353.890625 579.195312 357.582031 604.300781 363.554688 628.722656 L 358.058594 628.832031 C 352.671875 606.71875 348.40625 578.933594 335.167969 558.515625 " fill-opacity="1" fillRule="evenodd"/><g clip-path="url(#e572843a5d)"><path fill="#2bb874" d="M 333.457031 536.4375 C 333.457031 536.4375 321.335938 523.476562 310.730469 522.855469 C 300.140625 522.226562 299.230469 522.582031 299.230469 522.582031 C 299.230469 522.582031 275.34375 509.324219 262.523438 510.730469 C 249.703125 512.144531 241.347656 536.710938 242.882812 552.464844 C 244.425781 568.230469 244.027344 583.839844 241.347656 589.363281 C 238.679688 594.9375 237.164062 626.660156 236.789062 627.375 L 272.320312 591.613281 C 276.5625 589.363281 280.511719 587.085938 283.671875 584.941406 C 298.113281 575.105469 310.953125 545.957031 319.824219 540.078125 C 328.714844 534.222656 333.457031 536.4375 333.457031 536.4375 " fill-opacity="1" fillRule="evenodd"/></g><path fill="#464a3e" d="M 300.984375 524.738281 C 280.324219 525.667969 275.625 545.214844 268.125 561.40625 C 265.609375 566.832031 251.339844 604.070312 244.289062 603.839844 C 252.097656 598.472656 265.652344 557.230469 269.285156 547.53125 C 273.085938 537.390625 273.648438 528.445312 280.585938 523.953125 C 287.382812 519.574219 300.421875 519.515625 315.75 523.777344 C 317.386719 524.277344 320.78125 524.160156 321.019531 525.410156 C 311.25 523.996094 300.984375 524.730469 300.984375 524.730469 L 300.984375 524.738281 " fill-opacity="1" fillRule="evenodd"/><path fill="#000000" d="M 355.269531 582.425781 L 363.554688 628.722656 L 370.640625 628.722656 L 368.558594 581.445312 L 355.269531 582.425781 " fill-opacity="1" fillRule="evenodd"/><path fill="#e7edfb" d="M 939.105469 736.640625 L 1013.445312 736.640625 L 1013.445312 514.871094 L 939.105469 514.871094 L 939.105469 736.640625 " fill-opacity="1" fillRule="evenodd"/><path fill="#7a9eec" d="M 1013.445312 736.640625 L 1192.921875 736.640625 L 1192.921875 514.871094 L 1013.445312 514.871094 L 1013.445312 736.640625 " fill-opacity="1" fillRule="evenodd"/><path fill="#7a9eec" d="M 950.425781 549.007812 L 958.582031 549.007812 L 958.582031 555.917969 L 950.425781 555.917969 Z M 964.804688 549.007812 L 972.972656 549.007812 L 972.972656 555.917969 L 964.804688 555.917969 Z M 950.425781 534.894531 L 1004.914062 534.894531 L 1004.914062 541.816406 L 950.425781 541.816406 L 950.425781 534.894531 " fill-opacity="1" fillRule="evenodd"/><path fill="#1f2c5c" d="M 670.90625 93.175781 C 670.90625 93.175781 680.957031 97.019531 683.113281 104.492188 C 685.277344 111.949219 679.277344 124.515625 675.5625 125.097656 C 671.871094 125.675781 664.742188 103.105469 670.90625 93.175781 " fill-opacity="1" fillRule="evenodd"/><path fill="#fe9365" d="M 673.941406 104.195312 C 673.941406 104.195312 676.574219 111.933594 677.171875 115.476562 C 677.769531 119.003906 680.335938 131.574219 681.671875 134.980469 C 683.027344 138.40625 683.414062 142.589844 682.566406 143.9375 C 681.734375 145.300781 677.648438 150.183594 677.871094 153.097656 C 678.085938 156.027344 685.144531 171.050781 686.402344 173.300781 C 687.65625 175.550781 685.816406 179.582031 683.890625 179.699219 C 681.972656 179.820312 678.441406 180.238281 678.101562 181.710938 C 677.742188 183.1875 679.976562 187.871094 679.976562 187.871094 C 679.976562 187.871094 677.886719 191.554688 676.625 191.800781 C 675.355469 192.039062 678.917969 194.773438 678.570312 196.085938 C 678.246094 197.398438 675.910156 199.972656 676.25 202.164062 C 676.609375 204.351562 677.488281 209.8125 677.691406 211.570312 C 677.90625 213.324219 677.90625 220.730469 674.65625 223.261719 C 671.410156 225.773438 665.664062 224.804688 661.136719 222.75 C 656.621094 220.710938 646.492188 217.941406 643.789062 218.675781 C 641.078125 219.402344 638.648438 249.089844 640.226562 252.691406 C 641.820312 256.28125 574.144531 236.238281 574.144531 236.238281 C 574.144531 236.238281 584.546875 200.527344 583.855469 183.6875 C 583.171875 166.851562 609.546875 116.253906 619.171875 106.929688 C 628.769531 97.617188 673.941406 104.195312 673.941406 104.195312 " fill-opacity="1" fillRule="evenodd"/><path fill="#ce7752" d="M 674.019531 223.6875 C 670.695312 225.65625 665.367188 224.667969 661.136719 222.75 C 656.621094 220.710938 646.492188 217.941406 643.789062 218.675781 C 642.5625 219 641.421875 225.09375 640.660156 232.054688 C 635.105469 228.570312 626.628906 223.746094 615.582031 218.878906 C 601.015625 212.480469 587.496094 210.707031 580.582031 210.214844 C 582.199219 202.382812 583.574219 194.136719 583.847656 187.617188 L 618.199219 160.527344 L 632.945312 160.46875 L 639.492188 192.234375 L 674.019531 223.6875 " fill-opacity="1" fillRule="evenodd"/><path fill="#e5845b" d="M 678.101562 181.710938 C 677.742188 183.1875 679.976562 187.871094 679.976562 187.871094 C 679.976562 187.871094 677.886719 191.554688 676.625 191.800781 C 675.355469 192.039062 678.917969 194.773438 678.570312 196.085938 C 678.246094 197.398438 675.910156 199.972656 676.25 202.164062 C 676.609375 204.351562 677.488281 209.8125 677.691406 211.570312 C 677.90625 213.324219 677.90625 220.730469 674.65625 223.261719 C 672.707031 224.777344 669.859375 225.03125 666.917969 224.554688 C 660.601562 221.472656 644.515625 214.628906 637.917969 211.332031 C 630.183594 207.480469 628.421875 199.214844 628.265625 191.722656 C 628.105469 184.226562 629.144531 161.523438 629.144531 161.523438 L 645.488281 156.941406 C 645.488281 156.941406 642.160156 175.617188 646.730469 181.753906 C 651.316406 187.890625 660.3125 185.785156 665.289062 183.628906 C 670.25 181.472656 676.105469 181.574219 678.101562 181.710938 " fill-opacity="1" fillRule="evenodd"/><path fill="#fe9365" d="M 678.636719 184.582031 C 679.183594 186.234375 679.976562 187.871094 679.976562 187.871094 C 679.976562 187.871094 677.886719 191.554688 676.625 191.800781 C 675.355469 192.039062 678.917969 194.773438 678.570312 196.085938 C 678.289062 197.210938 676.550781 199.246094 676.269531 201.164062 C 673.746094 200.542969 670.285156 199.433594 668.195312 197.832031 C 664.632812 195.105469 664.929688 189.347656 665.765625 187.652344 C 666.441406 186.261719 675.398438 185 678.636719 184.582031 " fill-opacity="1" fillRule="evenodd"/><path fill="#e5845b" d="M 679.976562 187.871094 C 679.976562 187.871094 676.625 188.027344 674.257812 188.109375 C 671.871094 188.1875 667.683594 186.832031 667.300781 187.097656 C 666.898438 187.351562 669.738281 189.585938 672.5 190.683594 C 675.253906 191.785156 676.644531 192.082031 677.28125 191.878906 C 677.921875 191.679688 680.574219 188.734375 679.976562 187.871094 " fill-opacity="1" fillRule="evenodd"/><path fill="#1f2c5c" d="M 569.5 124.226562 C 569.5 124.226562 565.792969 139.609375 568.613281 152.28125 C 571.410156 164.933594 576.550781 184.898438 577.691406 192.457031 C 578.6875 198.992188 581.058594 200.945312 591.449219 201.003906 C 597.519531 201.027344 613.222656 204.097656 616.945312 200.449219 C 617.039062 200.363281 622.164062 187.933594 622.148438 176.828125 C 622.148438 165.488281 626.585938 159.574219 626.597656 158.074219 C 626.707031 144.054688 643.714844 151.042969 647.898438 147.992188 C 652.09375 144.953125 655.160156 121.875 657.890625 116.074219 C 660.601562 110.289062 669.039062 108.523438 673.277344 109.972656 C 677.488281 111.410156 679.601562 114.71875 680.214844 113.097656 C 680.820312 111.472656 675.210938 96.140625 670.90625 93.175781 C 666.617188 90.226562 638.011719 82.816406 629.222656 82.390625 C 620.433594 81.953125 596.871094 81.035156 589.914062 88.039062 C 582.96875 95.050781 571.1875 116.53125 569.5 124.226562 " fill-opacity="1" fillRule="evenodd"/><path fill="#1f2c5c" d="M 665.929688 148.214844 C 665.929688 148.214844 670.164062 143.648438 674.324219 143.296875 C 678.511719 142.957031 682.578125 141.816406 683.027344 141.515625 C 683.464844 141.21875 685.21875 144.746094 682.152344 146.367188 C 679.097656 147.992188 671.921875 145.25 665.929688 148.214844 " fill-opacity="1" fillRule="evenodd"/><path fill="#1f2c5c" d="M 667.523438 154.808594 C 667.523438 154.808594 668.851562 151.742188 673.457031 150.300781 C 678.03125 148.871094 678.867188 150.710938 678.996094 151.308594 C 679.125 151.886719 671.769531 153.054688 667.523438 154.808594 " fill-opacity="1" fillRule="evenodd"/><path fill="#1f2c5c" d="M 672.320312 152.101562 C 672.320312 152.101562 670.964844 155.542969 672.050781 157.359375 C 673.140625 159.179688 676.574219 158.617188 676.609375 156.300781 C 676.652344 153.976562 676.113281 152.5625 676.523438 151.503906 C 676.925781 150.464844 672.320312 152.101562 672.320312 152.101562 " fill-opacity="1" fillRule="evenodd"/><path fill="#fe9365" d="M 645.734375 148.15625 C 645.734375 148.15625 643.382812 139.847656 637.890625 138.570312 C 632.410156 137.289062 624.285156 140.5625 625.003906 152 C 625.734375 163.425781 630.839844 172.671875 635.460938 174.484375 C 640.082031 176.292969 641.625 174.398438 641.625 174.398438 L 645.734375 148.15625 " fill-opacity="1" fillRule="evenodd"/><path fill="#7a9eec" d="M 563.25 245.839844 C 563.25 245.839844 570.214844 228.75 569.550781 226.925781 C 568.894531 225.101562 612.359375 223.105469 631.777344 237.386719 C 651.199219 251.644531 657.171875 260.609375 658.84375 267.230469 C 660.5 273.867188 563.25 245.839844 563.25 245.839844 " fill-opacity="1" fillRule="evenodd"/><path fill="#6e8ed4" d="M 563.25 245.839844 C 563.25 245.839844 565.550781 240.320312 567.386719 235.265625 C 578.671875 234.882812 599.566406 236.035156 624.898438 246.105469 C 635.207031 250.203125 643.757812 254.574219 650.730469 258.792969 C 655.734375 264.578125 657.933594 269.035156 658.84375 272.726562 C 660.5 279.457031 563.25 245.839844 563.25 245.839844 " fill-opacity="1" fillRule="evenodd"/><path fill="#e7edfb" d="M 656.757812 459.015625 L 1155.488281 459.015625 L 1155.488281 435.121094 L 656.757812 435.121094 L 656.757812 459.015625 " fill-opacity="1" fillRule="evenodd"/><path fill="#000000" d="M 1043.605469 736.640625 L 1060.757812 736.640625 L 1060.757812 459.015625 L 1043.605469 459.015625 L 1043.605469 736.640625 " fill-opacity="1" fillRule="evenodd"/><path fill="#000000" d="M 1183.28125 736.640625 L 1200.441406 736.640625 L 1200.441406 459.015625 L 1183.28125 459.015625 L 1183.28125 736.640625 " fill-opacity="1" fillRule="evenodd"/><g clip-path="url(#933fd5c338)"><path fill="#cccccc" d="M 1043.605469 459.015625 L 1203.414062 459.015625 L 1203.414062 435.121094 L 1043.605469 435.121094 L 1043.605469 459.015625 " fill-opacity="1" fillRule="evenodd"/></g><path fill="#000000" d="M 544.292969 736.640625 L 561.445312 736.640625 L 561.445312 459.015625 L 544.292969 459.015625 L 544.292969 736.640625 " fill-opacity="1" fillRule="evenodd"/><path fill="#7a9eec" d="M 502.171875 306.445312 C 505.957031 267.484375 541.589844 259.75 556.933594 246.175781 C 561.246094 242.355469 601.746094 238.710938 631.941406 252.300781 C 662.144531 265.910156 669.117188 264.910156 679.082031 285.480469 C 689.046875 306.058594 683.054688 386.355469 682.398438 400.289062 C 681.734375 414.226562 684.402344 441.769531 680.402344 448.066406 C 676.429688 454.371094 674.4375 459.015625 678.75 460.667969 C 683.054688 462.320312 688.707031 496.832031 689.371094 504.46875 C 690.042969 512.101562 597.09375 532.007812 597.09375 532.007812 C 597.09375 532.007812 483.25 360.585938 502.171875 306.445312 " fill-opacity="1" fillRule="evenodd"/><path fill="#6e8ed4" d="M 683.753906 375.515625 C 683.191406 387.164062 682.578125 396.359375 682.398438 400.289062 C 681.734375 414.226562 684.402344 441.769531 680.402344 448.066406 C 676.429688 454.371094 674.4375 459.015625 678.75 460.667969 C 683.054688 462.320312 688.707031 496.832031 689.371094 504.46875 C 689.789062 509.308594 652.570312 519.082031 625.273438 525.589844 C 625.292969 525.566406 636.519531 501.800781 642.160156 489.527344 C 647.804688 477.25 652.109375 470.289062 644.140625 461.988281 C 636.179688 453.707031 650.132812 437.773438 646.132812 428.824219 C 642.160156 419.867188 633.195312 408.585938 624.898438 390.335938 C 618.675781 376.632812 596.394531 338.765625 620.910156 300.605469 C 631.652344 283.90625 661.503906 281.230469 668.597656 287.195312 C 684.921875 300.9375 672.390625 357.742188 683.753906 375.515625 " fill-opacity="1" fillRule="evenodd"/><g clip-path="url(#509875d6c1)"><path fill="#71473d" d="M 662.988281 511.71875 C 662.988281 511.71875 832.921875 525.371094 858.148438 545.914062 C 883.371094 566.457031 926.042969 741.535156 926.042969 741.535156 L 842.769531 741.535156 C 842.769531 741.535156 804.179688 602.128906 792.953125 598.507812 C 781.734375 594.882812 656.679688 604.539062 644.070312 599.410156 C 631.457031 594.28125 612.199219 510.765625 612.199219 510.765625 L 662.988281 511.71875 " fill-opacity="1" fillRule="evenodd"/></g><path fill="#a6472d" d="M 437.941406 297.597656 C 467.742188 360.066406 436.78125 378.386719 444.078125 402.9375 C 447.742188 415.226562 499.179688 589.226562 499.179688 589.226562 C 499.179688 589.226562 505.820312 615.445312 520.433594 621.410156 C 535.027344 627.402344 550.292969 625.730469 550.292969 625.730469 L 656.023438 625.730469 L 621.652344 551.417969 L 575.195312 390.835938 L 579.839844 344.371094 L 565.230469 296.601562 L 437.941406 297.597656 " fill-opacity="1" fillRule="evenodd"/><path fill="#7a9eec" d="M 626.648438 346.535156 C 626.648438 346.535156 614.355469 294.113281 648.878906 286.480469 C 683.394531 278.84375 686.046875 279.839844 698.996094 299.089844 C 711.945312 318.339844 718.917969 330.277344 721.566406 334.265625 C 724.21875 338.246094 741.148438 345.878906 749.773438 356.820312 C 758.410156 367.777344 760.40625 373.078125 763.390625 375.074219 C 766.382812 377.066406 772.679688 382.367188 772.679688 382.367188 C 772.679688 382.367188 752.445312 446.414062 736.835938 441.769531 C 721.242188 437.125 706.300781 415.226562 689.695312 406.917969 C 673.105469 398.625 637.59375 384.359375 626.648438 346.535156 " fill-opacity="1" fillRule="evenodd"/><path fill="#6e8ed4" d="M 772.679688 382.367188 C 772.679688 382.367188 752.445312 446.414062 736.835938 441.769531 C 721.242188 437.125 706.300781 415.226562 689.695312 406.917969 C 687.851562 405.988281 685.746094 404.992188 683.488281 403.890625 C 689.652344 406.824219 718.558594 419.816406 733.929688 412.738281 C 751.191406 404.769531 772.679688 382.367188 772.679688 382.367188 " fill-opacity="1" fillRule="evenodd"/><path fill="#fe9365" d="M 782.476562 393.648438 C 782.476562 393.648438 861.976562 406.585938 871.4375 406.585938 C 880.890625 406.585938 881.894531 425.832031 874.597656 428.160156 C 867.3125 430.476562 795.839844 436.765625 780.488281 440.4375 C 765.128906 444.101562 750.140625 432.90625 750.140625 432.90625 L 782.476562 393.648438 " fill-opacity="1" fillRule="evenodd"/><path fill="#7a9eec" d="M 729.027344 441.929688 C 729.027344 441.929688 746.289062 434.285156 754.582031 419.699219 C 762.894531 405.101562 765.367188 379.359375 768.113281 378.625 C 770.863281 377.886719 773.355469 378.71875 776.839844 379.71875 C 780.320312 380.714844 791.425781 394.324219 791.765625 397.621094 C 792.097656 400.945312 796.746094 409.414062 784.640625 425.332031 C 772.511719 441.257812 757.90625 449.546875 754.761719 448.390625 C 751.609375 447.230469 741.308594 447.230469 738.828125 445.902344 C 736.339844 444.582031 732.855469 445.414062 729.027344 441.929688 " fill-opacity="1" fillRule="evenodd"/><path fill="#6e8ed4" d="M 745.070312 367.300781 C 744.949219 367.320312 704.382812 374.460938 709.164062 380.042969 C 714.585938 386.355469 741.804688 371.050781 741.898438 371.027344 L 742.894531 372.824219 C 742.820312 372.867188 714.125 389.003906 707.585938 381.378906 C 700.417969 373.027344 744.574219 365.273438 744.710938 365.265625 Z M 774.699219 385.179688 C 774.734375 385.203125 783.046875 394.5625 778.578125 409.53125 C 776.371094 416.921875 772.699219 422.425781 770.363281 425.945312 C 769.152344 427.769531 768.332031 428.988281 768.375 429.183594 C 768.433594 429.457031 768.519531 428.746094 769.058594 428.636719 C 774.632812 427.425781 780.558594 409.949219 780.582031 409.90625 L 782.542969 410.582031 C 782.527344 410.625 776.210938 429.214844 769.492188 430.65625 C 767.539062 431.089844 766.585938 430.75 766.347656 429.625 C 766.125 428.578125 767.121094 427.070312 768.648438 424.792969 C 770.90625 421.386719 774.472656 416.027344 776.585938 408.953125 C 780.734375 395.0625 773.167969 386.550781 773.140625 386.535156 Z M 708.722656 325.839844 C 708.585938 325.839844 665.460938 326.171875 662.875 333.601562 C 662.679688 334.164062 662.757812 334.445312 663.039062 334.546875 C 664.546875 335.074219 668.433594 334.308594 673.523438 333.292969 C 683.546875 331.335938 698.046875 328.488281 710.519531 332.613281 C 732.828125 339.984375 744.089844 351.238281 744.113281 351.265625 L 742.675781 352.738281 C 742.632812 352.714844 731.730469 341.796875 709.878906 334.582031 C 697.921875 330.617188 683.726562 333.421875 673.925781 335.339844 C 668.519531 336.394531 664.410156 337.214844 662.375 336.496094 C 660.820312 335.960938 660.257812 334.863281 660.925781 332.925781 C 663.992188 324.101562 708.566406 323.777344 708.703125 323.777344 Z M 678.980469 470.96875 C 678.980469 470.945312 677.742188 463.25 667.34375 459.3125 C 656.457031 455.1875 637.457031 450.066406 637.414062 450.058594 L 637.949219 448.066406 C 637.992188 448.074219 657.070312 453.210938 668.078125 457.378906 C 679.585938 461.742188 681.015625 470.585938 681.015625 470.613281 L 678.980469 470.96875 " fill-opacity="1" fillRule="nonzero"/><path fill="#af5942" d="M 453.875 282.21875 C 475.875 282.492188 557.300781 281.230469 568.757812 288.105469 C 582.039062 296.066406 592.78125 331.605469 593.121094 353.828125 C 593.453125 376.070312 588.476562 392.328125 590.800781 403.609375 C 593.121094 414.875 643.234375 574.808594 643.234375 574.808594 C 643.234375 574.808594 647.132812 591.765625 655.597656 594.585938 C 664.070312 597.40625 670.625 596.214844 670.625 596.214844 L 797.851562 596.214844 C 821.703125 596.214844 813.597656 610.085938 800.0625 619.253906 C 790.265625 625.902344 776.167969 625.730469 774.164062 625.730469 C 772.195312 625.730469 653.023438 625.730469 653.023438 625.730469 C 626.433594 627.945312 618.738281 596.613281 613.136719 576.546875 C 603.367188 541.566406 566.832031 410.683594 565.40625 404.929688 C 563.738281 398.292969 574.027344 364.457031 571.375 347.855469 C 568.714844 331.273438 562.738281 308.054688 554.113281 305.386719 C 545.476562 302.738281 442.398438 300.359375 440.234375 301.84375 C 438.375 303.136719 430.082031 281.9375 453.875 282.21875 " fill-opacity="1" fillRule="evenodd"/><path fill="#333333" d="M 776.824219 513.746094 C 774.617188 512.238281 774.0625 509.230469 775.578125 507.039062 C 777.105469 504.839844 780.097656 504.289062 782.304688 505.804688 C 782.3125 505.820312 791.5625 512.078125 796.132812 527.660156 C 798.296875 535.015625 801.382812 552.03125 803.660156 567.539062 C 805.902344 582.785156 807.351562 596.988281 806.429688 600.175781 C 805.679688 602.734375 803.003906 604.207031 800.453125 603.464844 C 797.894531 602.734375 796.421875 600.058594 797.164062 597.492188 C 797.664062 595.703125 796.183594 583.082031 794.09375 568.945312 C 791.84375 553.746094 788.878906 537.265625 786.875 530.386719 C 783.269531 518.101562 776.839844 513.753906 776.824219 513.746094 Z M 617.601562 514.09375 C 614.933594 514.148438 612.734375 512.035156 612.691406 509.382812 C 612.632812 506.714844 614.753906 504.507812 617.40625 504.449219 C 617.5 504.449219 649.117188 503.785156 652.691406 504.347656 C 655.316406 504.765625 657.113281 507.234375 656.695312 509.871094 C 656.277344 512.511719 653.804688 514.292969 651.171875 513.875 C 648.445312 513.441406 617.695312 514.09375 617.601562 514.09375 " fill-opacity="1" fillRule="nonzero"/><path fill="#af5942" d="M 645.394531 496.175781 C 645.394531 496.175781 773.847656 499.824219 781.808594 500.148438 C 789.78125 500.496094 794.09375 504.304688 796.746094 509.109375 C 799.394531 513.917969 796.914062 525.25 794.589844 525.25 C 792.261719 525.25 664.8125 520.070312 664.8125 520.070312 C 664.8125 520.070312 644.890625 523.554688 645.394531 496.175781 " fill-opacity="1" fillRule="evenodd"/><path fill="#e7edfb" d="M 976.484375 311.964844 L 1012.671875 311.964844 L 1053.078125 431.808594 L 1016.90625 431.808594 L 976.484375 311.964844 " fill-opacity="1" fillRule="evenodd"/><path fill="#32b1df" d="M 1022.949219 311.964844 L 1012.671875 311.964844 L 1053.078125 431.808594 L 1063.367188 431.808594 L 1022.949219 311.964844 " fill-opacity="1" fillRule="evenodd"/><path fill="#32b1df" d="M 911.929688 425.945312 L 1059.496094 421.222656 L 1065.691406 435.121094 C 1066.28125 436.449219 1034.296875 435.121094 1030.726562 435.121094 L 883.507812 435.121094 C 882.152344 435.121094 883.226562 429.183594 884.605469 429.097656 L 902.464844 428.023438 C 906.550781 427.769531 910.589844 425.988281 911.929688 425.945312 " fill-opacity="1" fillRule="evenodd"/><path fill="#e7edfb" d="M 911.570312 421.171875 L 1059.53125 421.171875 C 1060.671875 421.171875 1058.4375 422.109375 1054.578125 423.242188 L 1041.652344 427.0625 C 1037.785156 428.203125 1033.683594 429.140625 1032.550781 429.140625 L 884.582031 429.140625 C 883.449219 429.140625 885.671875 428.203125 889.542969 427.0625 L 902.464844 423.242188 C 906.328125 422.109375 910.417969 421.171875 911.570312 421.171875 " fill-opacity="1" fillRule="evenodd"/><path fill="#fe9365" d="M 862.835938 406.054688 C 862.835938 406.054688 876.433594 406.363281 886.550781 404.929688 C 896.660156 403.507812 908.519531 400.78125 913.90625 401.386719 C 919.308594 402 928.722656 410.292969 938.132812 415.277344 C 947.542969 420.269531 952.085938 420.667969 953.316406 421.589844 C 954.535156 422.527344 952.34375 424.777344 950.605469 424.871094 C 948.855469 424.957031 951.304688 427.503906 949.828125 428.664062 C 948.335938 429.8125 942.503906 430.136719 942.503906 430.136719 C 942.503906 430.136719 940.238281 433.339844 937.09375 433.878906 C 933.957031 434.421875 925.507812 432.964844 919.0625 431.609375 C 912.609375 430.238281 908.859375 429.105469 908.859375 429.105469 C 897.699219 430.570312 890.546875 435.617188 879.058594 431.492188 C 871.726562 428.875 869.042969 427.964844 869.042969 427.964844 L 862.835938 406.054688 " fill-opacity="1" fillRule="evenodd"/><path fill="#af5942" d="M 1100.703125 435.121094 L 1133.855469 435.121094 C 1137.578125 435.121094 1140.648438 432.070312 1140.648438 428.339844 L 1140.648438 372.78125 C 1140.648438 371.886719 1139.898438 371.144531 1139.003906 371.144531 L 1094.34375 371.144531 C 1093.433594 371.144531 1092.707031 371.886719 1092.707031 372.78125 L 1092.707031 427.144531 C 1092.707031 431.535156 1096.296875 435.121094 1100.703125 435.121094 " fill-opacity="1" fillRule="evenodd"/><path fill="#af5942" d="M 1104.597656 391.398438 C 1102.144531 388.902344 1098.742188 387.351562 1094.984375 387.351562 C 1094.285156 387.351562 1094.777344 387.335938 1094.429688 387.351562 C 1090.679688 387.429688 1087.292969 388.324219 1084.976562 390.359375 C 1082.726562 392.335938 1081.328125 395.625 1081.328125 400.628906 C 1081.328125 401.335938 1081.308594 400.859375 1081.308594 401.183594 C 1081.414062 406.285156 1082.707031 409.710938 1084.8125 411.84375 C 1087.167969 414.226562 1090.78125 415.191406 1094.984375 415.191406 C 1098.742188 415.191406 1102.144531 413.640625 1104.597656 411.144531 C 1107.097656 408.628906 1108.621094 405.144531 1108.621094 401.277344 C 1108.621094 397.40625 1107.097656 393.921875 1104.597656 391.398438 Z M 1094.984375 378.882812 C 1101.09375 378.882812 1106.617188 381.414062 1110.632812 385.476562 C 1114.632812 389.523438 1117.105469 395.105469 1117.105469 401.277344 C 1117.105469 407.4375 1114.632812 413.019531 1110.632812 417.066406 C 1106.617188 421.128906 1101.09375 423.660156 1094.984375 423.660156 C 1088.625 423.660156 1082.921875 421.949219 1078.796875 417.765625 C 1075.222656 414.132812 1073.015625 408.816406 1072.871094 401.359375 C 1072.855469 400.585938 1072.855469 400.910156 1072.855469 400.628906 C 1072.855469 392.917969 1075.359375 387.558594 1079.390625 384.019531 C 1083.339844 380.535156 1088.589844 379.027344 1094.265625 378.917969 C 1095.027344 378.898438 1094.703125 378.882812 1094.984375 378.882812 " fill-opacity="1" fillRule="nonzero"/><path fill="#999999" d="M 662.773438 736.640625 L 682.96875 736.640625 L 682.96875 625.730469 L 662.773438 625.730469 L 662.773438 736.640625 " fill-opacity="1" fillRule="evenodd"/><path fill="#e6b24c" d="M 296.867188 733.183594 L 427.257812 733.183594 L 427.257812 628.722656 L 296.867188 628.722656 L 296.867188 733.183594 " fill-opacity="1" fillRule="evenodd"/><path fill="#7a9eec" d="M 880.371094 160.410156 L 1158.753906 160.410156 L 1157.945312 155.644531 L 1167.375 162.207031 C 1170.578125 164.4375 1172.128906 168.539062 1171.011719 173.183594 L 1129.730469 344.601562 C 1128.042969 351.621094 1120.914062 357.367188 1113.882812 357.367188 L 832.949219 357.367188 C 830.773438 357.367188 828.867188 356.820312 827.304688 355.867188 L 827.304688 355.847656 C 826.988281 355.671875 826.707031 355.464844 826.425781 355.246094 L 816.460938 348.273438 L 818.398438 339.359375 C 818.398438 339.359375 820.691406 340.859375 823.675781 342.835938 L 864.507812 173.183594 C 866.203125 166.152344 873.335938 160.410156 880.371094 160.410156 " fill-opacity="1" fillRule="evenodd"/><path fill="#1a1a1a" d="M 870.566406 153.582031 L 1151.5 153.582031 C 1158.535156 153.582031 1162.898438 159.335938 1161.210938 166.347656 L 1119.941406 337.769531 C 1118.246094 344.789062 1111.113281 350.539062 1104.085938 350.539062 L 823.144531 350.539062 C 816.121094 350.539062 811.757812 344.789062 813.4375 337.769531 L 854.703125 166.347656 C 856.40625 159.335938 863.535156 153.582031 870.566406 153.582031 " fill-opacity="1" fillRule="evenodd"/><path fill="#1a1a1a" d="M 870.566406 161.132812 C 866.917969 161.132812 862.894531 164.617188 862.050781 168.121094 L 820.785156 339.523438 C 820.289062 341.601562 820.902344 342.992188 823.144531 342.992188 L 1104.085938 342.992188 C 1107.734375 342.992188 1111.75 339.507812 1112.601562 335.996094 L 1153.871094 164.59375 C 1154.355469 162.523438 1153.75 161.132812 1151.5 161.132812 L 870.566406 161.132812 " fill-opacity="1" fillRule="evenodd"/><path fill="#ffffff" d="M 848.769531 251.363281 L 828.285156 336.429688 L 1104.035156 336.429688 C 1104.742188 336.300781 1106.03125 335.117188 1106.210938 334.460938 L 1126.226562 251.363281 L 848.769531 251.363281 " fill-opacity="1" fillRule="evenodd"/><path fill="#7a9eec" d="M 870.609375 167.6875 C 869.910156 167.804688 868.613281 168.996094 868.4375 169.652344 L 828.285156 336.429688 L 969.453125 336.429688 L 1010.085938 167.6875 L 870.609375 167.6875 " fill-opacity="1" fillRule="evenodd"/><path fill="#4d4d4d" d="M 988.546875 142.0625 L 1024.171875 142.0625 C 1025.703125 142.0625 1026.976562 143.332031 1026.976562 144.867188 L 1026.976562 158.320312 C 1026.976562 159.871094 1025.703125 161.132812 1024.171875 161.132812 L 988.546875 161.132812 C 986.996094 161.132812 985.742188 159.871094 985.742188 158.320312 L 985.742188 144.867188 C 985.742188 143.332031 986.996094 142.0625 988.546875 142.0625 " fill-opacity="1" fillRule="evenodd"/><path fill="#999999" d="M 999.832031 157.699219 C 1003.003906 157.699219 1005.585938 155.117188 1005.585938 151.945312 C 1005.585938 148.777344 1003.003906 146.203125 999.832031 146.203125 C 996.660156 146.203125 994.085938 148.777344 994.085938 151.945312 C 994.085938 155.117188 996.660156 157.699219 999.832031 157.699219 " fill-opacity="1" fillRule="evenodd"/><path fill="#e6e6e6" d="M 901.160156 190.121094 L 952.417969 190.121094 C 953.902344 190.121094 954.789062 191.324219 954.378906 192.816406 C 953.980469 194.304688 952.445312 195.507812 950.960938 195.507812 L 899.695312 195.507812 C 898.222656 195.507812 897.335938 194.304688 897.734375 192.816406 C 898.136719 191.324219 899.6875 190.121094 901.160156 190.121094 " fill-opacity="1" fillRule="evenodd"/><path fill="#e6e6e6" d="M 897.0625 206.03125 L 935.660156 206.03125 C 937.152344 206.03125 938.105469 207.242188 937.800781 208.730469 C 937.484375 210.207031 936.019531 211.425781 934.527344 211.425781 L 895.925781 211.425781 C 894.445312 211.425781 893.488281 210.207031 893.796875 208.730469 C 894.113281 207.242188 895.585938 206.03125 897.0625 206.03125 " fill-opacity="1" fillRule="evenodd"/><path fill="#e6e6e6" d="M 884.980469 249.171875 L 936.230469 249.171875 C 937.714844 249.171875 938.601562 250.382812 938.191406 251.867188 C 937.800781 253.355469 936.257812 254.566406 934.773438 254.566406 L 883.507812 254.566406 C 882.042969 254.566406 881.144531 253.355469 881.546875 251.867188 C 881.949219 250.382812 883.5 249.171875 884.980469 249.171875 " fill-opacity="1" fillRule="evenodd"/><path fill="#e6e6e6" d="M 880.875 265.089844 L 919.472656 265.089844 C 920.964844 265.089844 921.917969 266.292969 921.621094 267.785156 C 921.3125 269.257812 919.832031 270.476562 918.339844 270.476562 L 879.75 270.476562 C 878.265625 270.476562 877.300781 269.257812 877.609375 267.785156 C 877.925781 266.292969 879.398438 265.089844 880.875 265.089844 " fill-opacity="1" fillRule="evenodd"/><path fill="#e6e6e6" d="M 873.917969 289.359375 L 925.175781 289.359375 C 926.648438 289.359375 927.546875 290.558594 927.144531 292.050781 C 926.742188 293.535156 925.191406 294.746094 923.710938 294.746094 L 872.460938 294.746094 C 870.96875 294.746094 870.089844 293.535156 870.492188 292.050781 C 870.898438 290.558594 872.425781 289.359375 873.917969 289.359375 " fill-opacity="1" fillRule="evenodd"/><path fill="#e6e6e6" d="M 871.496094 301.484375 L 922.738281 301.484375 C 924.230469 301.484375 925.125 302.710938 924.714844 304.1875 C 924.3125 305.667969 922.769531 306.878906 921.28125 306.878906 L 870.03125 306.878906 C 868.546875 306.878906 867.660156 305.667969 868.070312 304.1875 C 868.46875 302.710938 869.996094 301.484375 871.496094 301.484375 " fill-opacity="1" fillRule="evenodd"/><path fill="#e6e6e6" d="M 868.238281 315.246094 L 919.507812 315.246094 C 920.988281 315.246094 921.875 316.449219 921.46875 317.9375 C 921.066406 319.429688 919.53125 320.632812 918.046875 320.632812 L 866.78125 320.632812 C 865.308594 320.632812 864.421875 319.429688 864.820312 317.9375 C 865.222656 316.449219 866.773438 315.246094 868.238281 315.246094 " fill-opacity="1" fillRule="evenodd"/><path fill="#6380bf" d="M 880.738281 200.246094 C 884.863281 200.246094 887.753906 203.578125 887.191406 207.71875 C 886.617188 211.84375 882.808594 215.175781 878.683594 215.175781 C 874.558594 215.175781 871.667969 211.84375 872.238281 207.71875 C 872.800781 203.578125 876.609375 200.246094 880.738281 200.246094 " fill-opacity="1" fillRule="evenodd"/><path fill="#6380bf" d="M 867.53125 258.929688 C 871.660156 258.929688 874.539062 262.261719 873.976562 266.386719 C 873.414062 270.527344 869.605469 273.859375 865.476562 273.859375 C 861.351562 273.859375 858.460938 270.527344 859.035156 266.386719 C 859.597656 262.261719 863.390625 258.929688 867.53125 258.929688 " fill-opacity="1" fillRule="evenodd"/><path fill="#6380bf" d="M 855.777344 305.148438 C 859.902344 305.148438 862.792969 308.496094 862.230469 312.621094 C 861.660156 316.746094 857.855469 320.09375 853.722656 320.09375 C 849.597656 320.09375 846.707031 316.746094 847.277344 312.621094 C 847.839844 308.496094 851.660156 305.148438 855.777344 305.148438 " fill-opacity="1" fillRule="evenodd"/><path fill="#377fc1" d="M 999.390625 231.609375 C 999.390625 231.609375 1011.171875 199.988281 1020.265625 200.703125 C 1029.371094 201.4375 1024.375 218.488281 1039.335938 217.6875 C 1054.296875 216.886719 1056.050781 192.832031 1066.09375 194.3125 C 1076.144531 195.804688 1078.992188 213.757812 1090.097656 208.535156 C 1101.222656 203.3125 1105.765625 183.570312 1116.378906 190.835938 C 1126.992188 198.089844 1127.359375 231.609375 1127.359375 231.609375 L 999.390625 231.609375 " fill-opacity="1" fillRule="evenodd"/><path fill="#a6472d" d="M 999.390625 231.609375 L 1128.238281 231.609375 C 1128.238281 231.609375 1127.632812 215.070312 1121.015625 211.007812 C 1114.402344 206.941406 1107.632812 222.035156 1102.484375 213.914062 C 1097.351562 205.785156 1101.011719 186.195312 1089.816406 187.785156 C 1078.617188 189.371094 1071.285156 223.746094 1063.886719 217.808594 C 1056.488281 211.867188 1057.21875 198.625 1046.265625 201.609375 C 1035.347656 204.617188 1026.726562 232.191406 1023.589844 222.167969 C 1015.953125 197.859375 999.066406 231.609375 999.390625 231.609375 " fill-opacity="1" fillRule="evenodd"/><path fill="#ffb24c" d="M 1051.277344 262.945312 C 1068.964844 262.945312 1082.144531 277.292969 1080.6875 295 C 1079.230469 312.679688 1063.707031 327.03125 1046 327.03125 C 1028.296875 327.03125 1015.109375 312.679688 1016.574219 295 C 1018.03125 277.292969 1033.5625 262.945312 1051.277344 262.945312 " fill-opacity="1" fillRule="evenodd"/><path fill="#ad87ad" d="M 1068.089844 267.960938 C 1071.796875 270.460938 1074.867188 273.800781 1077.054688 277.710938 L 1048.636719 295 L 1068.089844 267.960938 " fill-opacity="1" fillRule="evenodd"/><path fill="#889cf5" d="M 1051.277344 262.945312 C 1057.601562 262.945312 1063.367188 264.792969 1068.089844 267.960938 L 1048.636719 295 L 1049.632812 262.996094 C 1050.167969 262.960938 1050.722656 262.945312 1051.277344 262.945312 " fill-opacity="1" fillRule="evenodd"/><path fill="#cfcfff" d="M 1016.632812 300.820312 C 1016.4375 298.929688 1016.414062 296.976562 1016.574219 295 C 1017.988281 277.847656 1032.617188 263.839844 1049.632812 262.996094 L 1048.636719 295 L 1016.632812 300.820312 " fill-opacity="1" fillRule="evenodd"/></svg>