<svg xmlns="http://www.w3.org/2000/svg" xmlns:xlink="http://www.w3.org/1999/xlink" width="1920" zoomAndPan="magnify" viewBox="0 0 1440 809.999993" height="1080" preserveAspectRatio="xMidYMid meet" version="1.0"><defs><clipPath id="e96d46aa36"><path d="M 553 69.449219 L 670 69.449219 L 670 169 L 553 169 Z M 553 69.449219 " clip-rule="nonzero"/></clipPath><clipPath id="de2e13a561"><path d="M 937 503 L 1053.222656 503 L 1053.222656 603 L 937 603 Z M 937 503 " clip-rule="nonzero"/></clipPath><clipPath id="54323f433a"><path d="M 671 548 L 950 548 L 950 728.699219 L 671 728.699219 Z M 671 548 " clip-rule="nonzero"/></clipPath><clipPath id="d06861b7b6"><path d="M 735 631 L 886 631 L 886 728.699219 L 735 728.699219 Z M 735 631 " clip-rule="nonzero"/></clipPath><clipPath id="ee2908e75c"><path d="M 658 726 L 683 726 L 683 728.699219 L 658 728.699219 Z M 658 726 " clip-rule="nonzero"/></clipPath><clipPath id="24204f3695"><path d="M 695 726 L 723 726 L 723 728.699219 L 695 728.699219 Z M 695 726 " clip-rule="nonzero"/></clipPath><clipPath id="2c2918a4e2"><path d="M 924 726 L 966 726 L 966 728.699219 L 924 728.699219 Z M 924 726 " clip-rule="nonzero"/></clipPath><clipPath id="183a4fd025"><path d="M 979 726 L 998 726 L 998 728.699219 L 979 728.699219 Z M 979 726 " clip-rule="nonzero"/></clipPath></defs><path fill="#eef4ff" d="M 1023.183594 469.445312 C 1017.269531 507.234375 999.789062 545.539062 967.015625 565.332031 C 943.109375 579.855469 913.929688 582.683594 885.910156 582.683594 C 857.890625 582.683594 829.742188 580.113281 802.109375 585.125 C 783.597656 588.46875 762.003906 593.09375 750.695312 608.003906 C 731.800781 632.941406 707.25 655.820312 676.53125 661.476562 C 645.8125 667.128906 614.066406 662.632812 583.347656 657.105469 C 554.039062 651.964844 524.09375 645.664062 498.898438 629.855469 C 473.707031 614.046875 453.65625 586.667969 454.683594 556.976562 C 455.96875 516.230469 494.660156 483.457031 494.914062 442.710938 C 495.300781 401.453125 457.640625 371.375 437.332031 335.511719 C 414.582031 295.023438 414.582031 243.097656 437.074219 202.738281 C 459.570312 162.378906 503.914062 135.257812 550.054688 133.457031 C 620.363281 130.757812 681.160156 181.660156 749.921875 196.953125 C 779.871094 203.636719 810.847656 203.378906 840.925781 209.164062 C 898.378906 220.347656 950.949219 254.535156 984.625 302.480469 C 1018.171875 350.421875 1032.308594 411.605469 1023.183594 469.445312 Z M 1023.183594 469.445312 " fill-opacity="1" fill-rule="nonzero"/><path stroke-linecap="round" transform="matrix(1.285322, 0, 0, 1.285338, 273.197599, -50.730702)" fill-opacity="1" fill="#ffffff" fill-rule="nonzero" stroke-linejoin="round" d="M 368.400542 381.298789 C 354.800473 381.298789 343.798852 370.200056 343.798852 356.700447 L 343.798852 157.199813 C 343.798852 143.599915 354.900764 132.601472 368.400542 132.601472 L 567.800349 132.601472 C 581.400418 132.601472 592.398999 143.700204 592.398999 157.199813 L 592.398999 356.600158 C 592.398999 370.200056 581.300127 381.198499 567.800349 381.198499 L 368.400542 381.198499 Z M 368.400542 381.298789 " stroke="#112544" stroke-width="1.5" stroke-opacity="1" stroke-miterlimit="10"/><path stroke-linecap="round" transform="matrix(1.285322, 0, 0, 1.285338, 273.197599, -50.730702)" fill-opacity="1" fill="#e1e5ff" fill-rule="nonzero" stroke-linejoin="round" d="M 580.400547 157.199813 L 580.400547 356.600158 C 580.400547 363.599167 574.699155 369.200198 567.800349 369.200198 L 368.400542 369.200198 C 361.401445 369.200198 355.800344 363.498877 355.800344 356.600158 L 355.800344 157.199813 C 355.800344 150.200804 361.498697 144.599773 368.400542 144.599773 L 567.800349 144.599773 C 574.799446 144.499483 580.400547 150.200804 580.400547 157.199813 Z M 580.400547 157.199813 " stroke="#112544" stroke-width="1.5" stroke-opacity="1" stroke-miterlimit="10"/><path fill="#ccd2ff" d="M 991.820312 357.234375 L 991.820312 395.539062 C 991.820312 399.136719 988.863281 402.09375 985.265625 402.09375 L 758.148438 402.09375 C 754.550781 402.09375 751.59375 399.136719 751.59375 395.539062 L 751.59375 357.234375 C 751.59375 353.636719 754.550781 350.679688 758.148438 350.679688 L 985.265625 350.679688 C 988.863281 350.808594 991.820312 353.636719 991.820312 357.234375 Z M 991.820312 357.234375 " fill-opacity="1" fill-rule="nonzero"/><path stroke-linecap="round" transform="matrix(1.285322, 0, 0, 1.285338, 273.197599, -50.730702)" fill-opacity="1" fill="#ffffff" fill-rule="nonzero" stroke-linejoin="round" d="M 562.901285 313.299296 L 562.901285 343.100549 C 562.901285 345.899545 560.60067 348.200131 557.7986 348.200131 L 381.101031 348.200131 C 378.298961 348.200131 376.001385 345.899545 376.001385 343.100549 L 376.001385 313.299296 C 376.001385 310.500301 378.298961 308.199714 381.101031 308.199714 L 557.7986 308.199714 C 560.60067 308.199714 562.901285 310.500301 562.901285 313.299296 Z M 562.901285 313.299296 " stroke="#112544" stroke-width="1.5" stroke-opacity="1" stroke-miterlimit="10"/><path fill="#ccd2ff" d="M 991.820312 281.914062 L 991.820312 320.21875 C 991.820312 323.816406 988.863281 326.773438 985.265625 326.773438 L 758.148438 326.773438 C 754.550781 326.773438 751.59375 323.816406 751.59375 320.21875 L 751.59375 281.914062 C 751.59375 278.316406 754.550781 275.359375 758.148438 275.359375 L 985.265625 275.359375 C 988.863281 275.359375 991.820312 278.1875 991.820312 281.914062 Z M 991.820312 281.914062 " fill-opacity="1" fill-rule="nonzero"/><path stroke-linecap="round" transform="matrix(1.285322, 0, 0, 1.285338, 273.197599, -50.730702)" fill-opacity="1" fill="#ffffff" fill-rule="nonzero" stroke-linejoin="round" d="M 562.901285 254.599399 L 562.901285 284.400652 C 562.901285 287.199648 560.60067 289.500234 557.7986 289.500234 L 381.101031 289.500234 C 378.298961 289.500234 376.001385 287.199648 376.001385 284.400652 L 376.001385 254.599399 C 376.001385 251.800403 378.298961 249.499817 381.101031 249.499817 L 557.7986 249.499817 C 560.60067 249.499817 562.901285 251.800403 562.901285 254.599399 Z M 562.901285 254.599399 " stroke="#112544" stroke-width="1.5" stroke-opacity="1" stroke-miterlimit="10"/><path fill="#ccd2ff" d="M 917.144531 206.722656 C 917.144531 233.070312 895.808594 254.539062 869.328125 254.539062 C 842.980469 254.539062 821.515625 233.199219 821.515625 206.722656 C 821.515625 180.246094 842.851562 158.90625 869.328125 158.90625 C 895.679688 158.90625 917.144531 180.375 917.144531 206.722656 Z M 917.144531 206.722656 " fill-opacity="1" fill-rule="nonzero"/><path stroke-linecap="round" transform="matrix(1.285322, 0, 0, 1.285338, 273.197599, -50.730702)" fill-opacity="1" fill="#ffffff" fill-rule="nonzero" stroke-linejoin="round" d="M 505.300813 196.200371 C 505.300813 216.698989 488.701131 233.398753 468.098926 233.398753 C 447.49976 233.398753 430.900078 216.799279 430.900078 196.200371 C 430.900078 175.601464 447.49976 158.998951 468.098926 158.998951 C 488.701131 158.998951 505.300813 175.601464 505.300813 196.200371 Z M 505.300813 196.200371 " stroke="#112544" stroke-width="1.5" stroke-opacity="1" stroke-miterlimit="10"/><path fill="#efa130" d="M 885.78125 183.457031 C 885.78125 189.5 880.898438 194.382812 874.855469 194.382812 C 871.386719 194.382812 868.300781 192.710938 866.246094 190.269531 C 864.703125 188.472656 863.804688 186.027344 863.804688 183.457031 C 863.804688 177.417969 868.6875 172.53125 874.726562 172.53125 C 875.886719 172.53125 877.042969 172.660156 878.070312 173.046875 C 882.570312 174.460938 885.78125 178.574219 885.78125 183.457031 Z M 885.78125 183.457031 " fill-opacity="1" fill-rule="nonzero"/><path fill="#ffc25e" d="M 880.511719 179.859375 C 880.511719 185.898438 875.628906 190.785156 869.585938 190.785156 C 868.429688 190.785156 867.273438 190.65625 866.246094 190.269531 C 864.703125 188.472656 863.804688 186.027344 863.804688 183.457031 C 863.804688 177.417969 868.6875 172.53125 874.726562 172.53125 C 875.886719 172.53125 877.042969 172.660156 878.070312 173.046875 C 879.613281 174.976562 880.511719 177.289062 880.511719 179.859375 Z M 880.511719 179.859375 " fill-opacity="1" fill-rule="nonzero"/><path stroke-linecap="round" transform="matrix(1.285322, 0, 0, 1.285338, 273.197599, -50.730702)" fill="none" stroke-linejoin="round" d="M 476.599349 182.199314 C 476.599349 186.900776 472.800447 190.69963 468.098926 190.69963 C 463.400444 190.69963 459.598503 186.900776 459.598503 182.199314 C 459.598503 177.500891 463.400444 173.698997 468.098926 173.698997 C 472.800447 173.698997 476.599349 177.500891 476.599349 182.199314 Z M 476.599349 182.199314 " stroke="#112544" stroke-width="1.5" stroke-opacity="1" stroke-miterlimit="10"/><path fill="#efa130" d="M 899.277344 226.386719 L 850.308594 226.386719 C 848.636719 226.386719 847.351562 224.972656 847.480469 223.304688 C 847.480469 222.789062 847.609375 222.273438 847.738281 221.890625 C 849.921875 209.035156 861.234375 199.140625 874.726562 199.140625 C 878.070312 199.140625 881.285156 199.78125 884.238281 200.808594 C 893.75 204.28125 900.820312 212.890625 901.976562 223.304688 C 902.234375 224.847656 900.949219 226.386719 899.277344 226.386719 Z M 899.277344 226.386719 " fill-opacity="1" fill-rule="nonzero"/><path fill="#ffc25e" d="M 891.308594 221.761719 L 847.738281 221.761719 C 849.921875 208.90625 861.234375 199.011719 874.726562 199.011719 C 878.070312 199.011719 881.285156 199.652344 884.238281 200.679688 C 889.507812 205.050781 893.109375 211.351562 894.007812 218.546875 C 894.265625 220.347656 892.980469 221.761719 891.308594 221.761719 Z M 891.308594 221.761719 " fill-opacity="1" fill-rule="nonzero"/><path stroke-linecap="round" transform="matrix(1.285322, 0, 0, 1.285338, 273.197599, -50.730702)" fill="none" stroke-linejoin="round" d="M 487.099514 215.598841 C 488.400258 215.598841 489.400129 214.498693 489.299838 213.201004 C 487.999094 202.600681 479.000255 194.401234 468.098926 194.401234 C 457.200636 194.401234 448.198758 202.600681 446.901053 213.201004 C 446.700471 214.498693 447.800633 215.598841 449.101377 215.598841 Z M 487.099514 215.598841 " stroke="#112544" stroke-width="1.5" stroke-opacity="1" stroke-miterlimit="10"/><path fill="#757bff" d="M 795.296875 295.667969 C 795.296875 301.835938 790.28125 306.722656 784.242188 306.722656 C 780.769531 306.722656 777.558594 305.050781 775.5 302.480469 C 773.960938 300.550781 773.058594 298.109375 773.058594 295.539062 C 773.058594 289.371094 778.070312 284.355469 784.242188 284.355469 C 785.398438 284.355469 786.554688 284.484375 787.582031 284.871094 C 792.082031 286.542969 795.296875 290.785156 795.296875 295.667969 Z M 795.296875 295.667969 " fill-opacity="1" fill-rule="nonzero"/><path fill="#8d95ff" d="M 790.027344 292.070312 C 790.027344 298.238281 785.011719 303.25 778.972656 303.25 C 777.816406 303.25 776.660156 303.121094 775.628906 302.738281 C 774.085938 300.808594 773.1875 298.367188 773.1875 295.796875 C 773.1875 289.625 778.199219 284.613281 784.371094 284.613281 C 785.527344 284.613281 786.683594 284.742188 787.710938 285.128906 C 789.125 286.925781 790.027344 289.371094 790.027344 292.070312 Z M 790.027344 292.070312 " fill-opacity="1" fill-rule="nonzero"/><path stroke-linecap="round" transform="matrix(1.285322, 0, 0, 1.285338, 273.197599, -50.730702)" fill="none" stroke-linejoin="round" d="M 406.201136 269.500025 C 406.201136 274.298738 402.298904 278.200921 397.600422 278.200921 C 392.79861 278.200921 388.999708 274.298738 388.999708 269.500025 C 388.999708 264.701313 392.898901 260.899419 397.600422 260.899419 C 402.298904 260.899419 406.201136 264.701313 406.201136 269.500025 Z M 406.201136 269.500025 " stroke="#112544" stroke-width="1.5" stroke-opacity="1" stroke-miterlimit="10"/><path fill="#757bff" d="M 832.3125 295.667969 C 832.3125 301.835938 827.300781 306.722656 821.257812 306.722656 C 817.789062 306.722656 814.574219 305.050781 812.519531 302.480469 C 810.976562 300.550781 810.078125 298.109375 810.078125 295.539062 C 810.078125 289.371094 815.089844 284.355469 821.257812 284.355469 C 822.414062 284.355469 823.574219 284.484375 824.601562 284.871094 C 829.097656 286.542969 832.3125 290.785156 832.3125 295.667969 Z M 832.3125 295.667969 " fill-opacity="1" fill-rule="nonzero"/><path fill="#8d95ff" d="M 827.042969 292.070312 C 827.042969 298.238281 822.03125 303.25 815.988281 303.25 C 814.832031 303.25 813.675781 303.121094 812.648438 302.738281 C 811.105469 300.808594 810.207031 298.367188 810.207031 295.796875 C 810.207031 289.625 815.21875 284.613281 821.386719 284.613281 C 822.542969 284.613281 823.699219 284.742188 824.730469 285.128906 C 826.144531 286.925781 827.042969 289.371094 827.042969 292.070312 Z M 827.042969 292.070312 " fill-opacity="1" fill-rule="nonzero"/><path stroke-linecap="round" transform="matrix(1.285322, 0, 0, 1.285338, 273.197599, -50.730702)" fill="none" stroke-linejoin="round" d="M 434.999853 269.500025 C 434.999853 274.298738 431.10066 278.200921 426.399138 278.200921 C 421.600365 278.200921 417.801463 274.298738 417.801463 269.500025 C 417.801463 264.701313 421.700656 260.899419 426.399138 260.899419 C 431.200951 260.899419 434.999853 264.701313 434.999853 269.500025 Z M 434.999853 269.500025 " stroke="#112544" stroke-width="1.5" stroke-opacity="1" stroke-miterlimit="10"/><path fill="#757bff" d="M 869.457031 295.667969 C 869.457031 301.835938 864.445312 306.722656 858.40625 306.722656 C 854.933594 306.722656 851.722656 305.050781 849.664062 302.480469 C 848.121094 300.550781 847.222656 298.109375 847.222656 295.539062 C 847.222656 289.371094 852.234375 284.355469 858.40625 284.355469 C 859.5625 284.355469 860.71875 284.484375 861.746094 284.871094 C 866.246094 286.542969 869.457031 290.785156 869.457031 295.667969 Z M 869.457031 295.667969 " fill-opacity="1" fill-rule="nonzero"/><path fill="#8d95ff" d="M 864.058594 292.070312 C 864.058594 298.238281 859.046875 303.25 853.007812 303.25 C 851.847656 303.25 850.691406 303.121094 849.664062 302.738281 C 848.121094 300.808594 847.222656 298.367188 847.222656 295.796875 C 847.222656 289.625 852.234375 284.613281 858.40625 284.613281 C 859.5625 284.613281 860.71875 284.742188 861.746094 285.128906 C 863.160156 286.925781 864.058594 289.371094 864.058594 292.070312 Z M 864.058594 292.070312 " fill-opacity="1" fill-rule="nonzero"/><path stroke-linecap="round" transform="matrix(1.285322, 0, 0, 1.285338, 273.197599, -50.730702)" fill="none" stroke-linejoin="round" d="M 463.89886 269.500025 C 463.89886 274.298738 459.999667 278.200921 455.301185 278.200921 C 450.499373 278.200921 446.700471 274.298738 446.700471 269.500025 C 446.700471 264.701313 450.599664 260.899419 455.301185 260.899419 C 459.999667 260.899419 463.89886 264.701313 463.89886 269.500025 Z M 463.89886 269.500025 " stroke="#112544" stroke-width="1.5" stroke-opacity="1" stroke-miterlimit="10"/><path fill="#757bff" d="M 906.476562 295.667969 C 906.476562 301.835938 901.464844 306.722656 895.421875 306.722656 C 891.953125 306.722656 888.738281 305.050781 886.683594 302.480469 C 885.140625 300.550781 884.238281 298.109375 884.238281 295.539062 C 884.238281 289.371094 889.253906 284.355469 895.421875 284.355469 C 896.578125 284.355469 897.734375 284.484375 898.765625 284.871094 C 903.261719 286.542969 906.476562 290.785156 906.476562 295.667969 Z M 906.476562 295.667969 " fill-opacity="1" fill-rule="nonzero"/><path fill="#8d95ff" d="M 901.207031 292.070312 C 901.207031 298.238281 896.191406 303.25 890.152344 303.25 C 888.996094 303.25 887.839844 303.121094 886.808594 302.738281 C 885.269531 300.808594 884.367188 298.367188 884.367188 295.796875 C 884.367188 289.625 889.382812 284.613281 895.550781 284.613281 C 896.707031 284.613281 897.863281 284.742188 898.890625 285.128906 C 900.304688 286.925781 901.207031 289.371094 901.207031 292.070312 Z M 901.207031 292.070312 " fill-opacity="1" fill-rule="nonzero"/><path stroke-linecap="round" transform="matrix(1.285322, 0, 0, 1.285338, 273.197599, -50.730702)" fill="none" stroke-linejoin="round" d="M 492.700615 269.500025 C 492.700615 274.298738 488.801422 278.200921 484.099901 278.200921 C 479.301128 278.200921 475.499187 274.298738 475.499187 269.500025 C 475.499187 264.701313 479.401419 260.899419 484.099901 260.899419 C 488.898674 260.899419 492.700615 264.701313 492.700615 269.500025 Z M 492.700615 269.500025 " stroke="#112544" stroke-width="1.5" stroke-opacity="1" stroke-miterlimit="10"/><path fill="#757bff" d="M 943.621094 295.667969 C 943.621094 301.835938 938.609375 306.722656 932.566406 306.722656 C 929.097656 306.722656 925.882812 305.050781 923.828125 302.480469 C 922.285156 300.550781 921.386719 298.109375 921.386719 295.539062 C 921.386719 289.371094 926.398438 284.355469 932.566406 284.355469 C 933.726562 284.355469 934.882812 284.484375 935.910156 284.871094 C 940.28125 286.542969 943.621094 290.785156 943.621094 295.667969 Z M 943.621094 295.667969 " fill-opacity="1" fill-rule="nonzero"/><path fill="#8d95ff" d="M 938.222656 292.070312 C 938.222656 298.238281 933.210938 303.25 927.167969 303.25 C 926.011719 303.25 924.855469 303.121094 923.828125 302.738281 C 922.285156 300.808594 921.386719 298.367188 921.386719 295.796875 C 921.386719 289.625 926.398438 284.613281 932.566406 284.613281 C 933.726562 284.613281 934.882812 284.742188 935.910156 285.128906 C 937.324219 286.925781 938.222656 289.371094 938.222656 292.070312 Z M 938.222656 292.070312 " fill-opacity="1" fill-rule="nonzero"/><path stroke-linecap="round" transform="matrix(1.285322, 0, 0, 1.285338, 273.197599, -50.730702)" fill="none" stroke-linejoin="round" d="M 521.599623 269.500025 C 521.599623 274.298738 517.70043 278.200921 512.998909 278.200921 C 508.200136 278.200921 504.401234 274.298738 504.401234 269.500025 C 504.401234 264.701313 508.300427 260.899419 512.998909 260.899419 C 517.70043 260.899419 521.599623 264.701313 521.599623 269.500025 Z M 521.599623 269.500025 " stroke="#112544" stroke-width="1.5" stroke-opacity="1" stroke-miterlimit="10"/><path fill="#757bff" d="M 795.296875 371.117188 C 795.296875 377.285156 790.28125 382.171875 784.242188 382.171875 C 780.769531 382.171875 777.558594 380.5 775.5 377.929688 C 773.960938 376 773.058594 373.558594 773.058594 370.988281 C 773.058594 364.820312 778.070312 359.804688 784.242188 359.804688 C 785.398438 359.804688 786.554688 359.933594 787.582031 360.320312 C 792.082031 361.992188 795.296875 366.105469 795.296875 371.117188 Z M 795.296875 371.117188 " fill-opacity="1" fill-rule="nonzero"/><path fill="#8d95ff" d="M 790.027344 367.390625 C 790.027344 373.558594 785.011719 378.570312 778.972656 378.570312 C 777.816406 378.570312 776.660156 378.445312 775.628906 378.058594 C 774.085938 376.128906 773.1875 373.6875 773.1875 371.117188 C 773.1875 364.949219 778.199219 359.933594 784.371094 359.933594 C 785.527344 359.933594 786.683594 360.0625 787.710938 360.449219 C 789.125 362.378906 790.027344 364.820312 790.027344 367.390625 Z M 790.027344 367.390625 " fill-opacity="1" fill-rule="nonzero"/><path stroke-linecap="round" transform="matrix(1.285322, 0, 0, 1.285338, 273.197599, -50.730702)" fill="none" stroke-linejoin="round" d="M 406.201136 328.199923 C 406.201136 332.998635 402.298904 336.900819 397.600422 336.900819 C 392.79861 336.900819 388.999708 332.998635 388.999708 328.199923 C 388.999708 323.40121 392.898901 319.599316 397.600422 319.599316 C 402.298904 319.599316 406.201136 323.40121 406.201136 328.199923 Z M 406.201136 328.199923 " stroke="#112544" stroke-width="1.5" stroke-opacity="1" stroke-miterlimit="10"/><path fill="#757bff" d="M 832.3125 371.117188 C 832.3125 377.285156 827.300781 382.171875 821.257812 382.171875 C 817.789062 382.171875 814.574219 380.5 812.519531 377.929688 C 810.976562 376 810.078125 373.558594 810.078125 370.988281 C 810.078125 364.820312 815.089844 359.804688 821.257812 359.804688 C 822.414062 359.804688 823.574219 359.933594 824.601562 360.320312 C 829.097656 361.992188 832.3125 366.105469 832.3125 371.117188 Z M 832.3125 371.117188 " fill-opacity="1" fill-rule="nonzero"/><path fill="#8d95ff" d="M 827.042969 367.390625 C 827.042969 373.558594 822.03125 378.570312 815.988281 378.570312 C 814.832031 378.570312 813.675781 378.445312 812.648438 378.058594 C 811.105469 376.128906 810.207031 373.6875 810.207031 371.117188 C 810.207031 364.949219 815.21875 359.933594 821.386719 359.933594 C 822.542969 359.933594 823.699219 360.0625 824.730469 360.449219 C 826.144531 362.378906 827.042969 364.820312 827.042969 367.390625 Z M 827.042969 367.390625 " fill-opacity="1" fill-rule="nonzero"/><path stroke-linecap="round" transform="matrix(1.285322, 0, 0, 1.285338, 273.197599, -50.730702)" fill="none" stroke-linejoin="round" d="M 434.999853 328.199923 C 434.999853 332.998635 431.10066 336.900819 426.399138 336.900819 C 421.600365 336.900819 417.801463 332.998635 417.801463 328.199923 C 417.801463 323.40121 421.700656 319.599316 426.399138 319.599316 C 431.200951 319.599316 434.999853 323.40121 434.999853 328.199923 Z M 434.999853 328.199923 " stroke="#112544" stroke-width="1.5" stroke-opacity="1" stroke-miterlimit="10"/><path fill="#757bff" d="M 869.457031 371.117188 C 869.457031 377.285156 864.445312 382.171875 858.40625 382.171875 C 854.933594 382.171875 851.722656 380.5 849.664062 377.929688 C 848.121094 376 847.222656 373.558594 847.222656 370.988281 C 847.222656 364.820312 852.234375 359.804688 858.40625 359.804688 C 859.5625 359.804688 860.71875 359.933594 861.746094 360.320312 C 866.246094 361.992188 869.457031 366.105469 869.457031 371.117188 Z M 869.457031 371.117188 " fill-opacity="1" fill-rule="nonzero"/><path fill="#8d95ff" d="M 864.058594 367.390625 C 864.058594 373.558594 859.046875 378.570312 853.007812 378.570312 C 851.847656 378.570312 850.691406 378.445312 849.664062 378.058594 C 848.121094 376.128906 847.222656 373.6875 847.222656 371.117188 C 847.222656 364.949219 852.234375 359.933594 858.40625 359.933594 C 859.5625 359.933594 860.71875 360.0625 861.746094 360.449219 C 863.160156 362.378906 864.058594 364.820312 864.058594 367.390625 Z M 864.058594 367.390625 " fill-opacity="1" fill-rule="nonzero"/><path stroke-linecap="round" transform="matrix(1.285322, 0, 0, 1.285338, 273.197599, -50.730702)" fill="none" stroke-linejoin="round" d="M 463.89886 328.199923 C 463.89886 332.998635 459.999667 336.900819 455.301185 336.900819 C 450.499373 336.900819 446.700471 332.998635 446.700471 328.199923 C 446.700471 323.40121 450.599664 319.599316 455.301185 319.599316 C 459.999667 319.599316 463.89886 323.40121 463.89886 328.199923 Z M 463.89886 328.199923 " stroke="#112544" stroke-width="1.5" stroke-opacity="1" stroke-miterlimit="10"/><path fill="#757bff" d="M 906.476562 371.117188 C 906.476562 377.285156 901.464844 382.171875 895.421875 382.171875 C 891.953125 382.171875 888.738281 380.5 886.683594 377.929688 C 885.140625 376 884.238281 373.558594 884.238281 370.988281 C 884.238281 364.820312 889.253906 359.804688 895.421875 359.804688 C 896.578125 359.804688 897.734375 359.933594 898.765625 360.320312 C 903.261719 361.992188 906.476562 366.105469 906.476562 371.117188 Z M 906.476562 371.117188 " fill-opacity="1" fill-rule="nonzero"/><path fill="#8d95ff" d="M 901.207031 367.390625 C 901.207031 373.558594 896.191406 378.570312 890.152344 378.570312 C 888.996094 378.570312 887.839844 378.445312 886.808594 378.058594 C 885.269531 376.128906 884.367188 373.6875 884.367188 371.117188 C 884.367188 364.949219 889.382812 359.933594 895.550781 359.933594 C 896.707031 359.933594 897.863281 360.0625 898.890625 360.449219 C 900.304688 362.378906 901.207031 364.820312 901.207031 367.390625 Z M 901.207031 367.390625 " fill-opacity="1" fill-rule="nonzero"/><path stroke-linecap="round" transform="matrix(1.285322, 0, 0, 1.285338, 273.197599, -50.730702)" fill="none" stroke-linejoin="round" d="M 492.700615 328.199923 C 492.700615 332.998635 488.801422 336.900819 484.099901 336.900819 C 479.301128 336.900819 475.499187 332.998635 475.499187 328.199923 C 475.499187 323.40121 479.401419 319.599316 484.099901 319.599316 C 488.898674 319.599316 492.700615 323.40121 492.700615 328.199923 Z M 492.700615 328.199923 " stroke="#112544" stroke-width="1.5" stroke-opacity="1" stroke-miterlimit="10"/><path fill="#757bff" d="M 943.621094 371.117188 C 943.621094 377.285156 938.609375 382.171875 932.566406 382.171875 C 929.097656 382.171875 925.882812 380.5 923.828125 377.929688 C 922.285156 376 921.386719 373.558594 921.386719 370.988281 C 921.386719 364.820312 926.398438 359.804688 932.566406 359.804688 C 933.726562 359.804688 934.882812 359.933594 935.910156 360.320312 C 940.28125 361.992188 943.621094 366.105469 943.621094 371.117188 Z M 943.621094 371.117188 " fill-opacity="1" fill-rule="nonzero"/><path fill="#8d95ff" d="M 938.222656 367.390625 C 938.222656 373.558594 933.210938 378.570312 927.167969 378.570312 C 926.011719 378.570312 924.855469 378.445312 923.828125 378.058594 C 922.285156 376.128906 921.386719 373.6875 921.386719 371.117188 C 921.386719 364.949219 926.398438 359.933594 932.566406 359.933594 C 933.726562 359.933594 934.882812 360.0625 935.910156 360.449219 C 937.324219 362.378906 938.222656 364.820312 938.222656 367.390625 Z M 938.222656 367.390625 " fill-opacity="1" fill-rule="nonzero"/><path stroke-linecap="round" transform="matrix(1.285322, 0, 0, 1.285338, 273.197599, -50.730702)" fill="none" stroke-linejoin="round" d="M 521.599623 328.199923 C 521.599623 332.998635 517.70043 336.900819 512.998909 336.900819 C 508.200136 336.900819 504.401234 332.998635 504.401234 328.199923 C 504.401234 323.40121 508.300427 319.599316 512.998909 319.599316 C 517.70043 319.599316 521.599623 323.40121 521.599623 328.199923 Z M 521.599623 328.199923 " stroke="#112544" stroke-width="1.5" stroke-opacity="1" stroke-miterlimit="10"/><path fill="#ffffff" d="M 668.5625 83.074219 L 668.5625 154.921875 C 668.5625 161.863281 662.90625 167.519531 655.964844 167.519531 L 567.023438 167.519531 C 560.082031 167.519531 554.425781 161.863281 554.425781 154.921875 L 554.425781 83.074219 C 554.425781 76.132812 560.082031 70.476562 567.023438 70.476562 L 655.964844 70.476562 C 663.035156 70.476562 668.5625 76.132812 668.5625 83.074219 Z M 668.5625 83.074219 " fill-opacity="1" fill-rule="nonzero"/><path fill="#ccd2ff" d="M 668.5625 83.074219 L 668.5625 154.921875 C 668.5625 161.863281 662.90625 167.519531 655.964844 167.519531 L 567.023438 167.519531 C 562.265625 167.519531 558.023438 164.820312 555.96875 160.835938 C 557.640625 161.605469 559.4375 161.992188 561.238281 161.992188 L 650.183594 161.992188 C 657.125 161.992188 662.777344 156.335938 662.777344 149.394531 L 662.777344 77.675781 C 662.777344 75.488281 662.265625 73.5625 661.234375 71.761719 C 665.605469 73.691406 668.5625 78.058594 668.5625 83.074219 Z M 668.5625 83.074219 " fill-opacity="1" fill-rule="nonzero"/><g clip-path="url(#e96d46aa36)"><path stroke-linecap="round" transform="matrix(1.285322, 0, 0, 1.285338, 273.197599, -50.730702)" fill="none" stroke-linejoin="round" d="M 307.599875 104.100947 L 307.599875 159.998809 C 307.599875 165.39926 303.199227 169.799853 297.798708 169.799853 L 228.600948 169.799853 C 223.200429 169.799853 218.799781 165.39926 218.799781 159.998809 L 218.799781 104.100947 C 218.799781 98.700495 223.200429 94.299903 228.600948 94.299903 L 297.798708 94.299903 C 303.299518 94.299903 307.599875 98.700495 307.599875 104.100947 Z M 307.599875 104.100947 " stroke="#112544" stroke-width="1.5" stroke-opacity="1" stroke-miterlimit="10"/></g><path fill="#ffffff" d="M 1052.101562 517.515625 L 1052.101562 589.367188 C 1052.101562 596.308594 1046.449219 601.964844 1039.507812 601.964844 L 950.5625 601.964844 C 943.621094 601.964844 937.964844 596.308594 937.964844 589.367188 L 937.964844 517.515625 C 937.964844 510.578125 943.621094 504.921875 950.5625 504.921875 L 1039.507812 504.921875 C 1046.449219 505.050781 1052.101562 510.578125 1052.101562 517.515625 Z M 1052.101562 517.515625 " fill-opacity="1" fill-rule="nonzero"/><path fill="#ccd2ff" d="M 1052.101562 517.515625 L 1052.101562 589.367188 C 1052.101562 596.308594 1046.449219 601.964844 1039.507812 601.964844 L 950.5625 601.964844 C 945.804688 601.964844 941.566406 599.265625 939.507812 595.28125 C 941.179688 596.050781 942.980469 596.4375 944.777344 596.4375 L 1033.722656 596.4375 C 1040.664062 596.4375 1046.320312 590.78125 1046.320312 583.839844 L 1046.320312 511.992188 C 1046.320312 509.804688 1045.804688 507.878906 1044.777344 506.078125 C 1049.148438 508.132812 1052.101562 512.503906 1052.101562 517.515625 Z M 1052.101562 517.515625 " fill-opacity="1" fill-rule="nonzero"/><g clip-path="url(#de2e13a561)"><path stroke-linecap="round" transform="matrix(1.285322, 0, 0, 1.285338, 273.197599, -50.730702)" fill="none" stroke-linejoin="round" d="M 605.999069 442.098693 L 605.999069 497.999594 C 605.999069 503.400046 601.60146 507.800638 596.200941 507.800638 L 527.000142 507.800638 C 521.599623 507.800638 517.198975 503.400046 517.198975 497.999594 L 517.198975 442.098693 C 517.198975 436.701281 521.599623 432.300688 527.000142 432.300688 L 596.200941 432.300688 C 601.60146 432.400978 605.999069 436.701281 605.999069 442.098693 Z M 605.999069 442.098693 " stroke="#112544" stroke-width="1.5" stroke-opacity="1" stroke-miterlimit="10"/></g><path stroke-linecap="round" transform="matrix(1.285322, 0, 0, 1.285338, 273.197599, -50.730702)" fill="none" stroke-linejoin="round" d="M 263.298599 169.799853 L 263.298599 227.299312 L 343.698561 227.299312 " stroke="#112544" stroke-width="1.5" stroke-opacity="1" stroke-miterlimit="10"/><path stroke-linecap="round" transform="matrix(1.285322, 0, 0, 1.285338, 273.197599, -50.730702)" fill="none" stroke-linejoin="round" d="M 517.299266 470.498928 L 461.798827 470.498928 L 461.798827 382.000817 " stroke="#112544" stroke-width="1.5" stroke-opacity="1" stroke-miterlimit="10"/><path fill="#e1e5ff" d="M 597.742188 141.941406 C 594.140625 139.757812 591.441406 136.929688 589.386719 133.457031 C 587.457031 129.859375 586.429688 126.132812 586.429688 122.019531 C 586.429688 117.007812 587.714844 112.25 590.285156 107.878906 C 592.855469 103.511719 596.328125 100.039062 600.699219 97.339844 C 605.066406 94.769531 609.824219 93.355469 614.835938 93.355469 C 619.464844 93.355469 623.703125 94.382812 627.5625 96.3125 C 631.417969 98.238281 634.628906 101.066406 636.945312 104.539062 C 639.257812 108.007812 640.414062 111.992188 640.414062 116.492188 C 640.414062 119.320312 640.027344 122.019531 639.128906 124.460938 C 638.230469 127.03125 636.945312 129.089844 635.015625 130.628906 C 633.214844 132.300781 630.773438 133.074219 627.945312 133.074219 C 625.761719 133.074219 623.960938 132.558594 622.675781 131.660156 C 621.390625 130.628906 620.621094 129.472656 620.363281 128.1875 C 618.949219 129.859375 617.277344 131.144531 615.351562 132.042969 C 613.421875 132.816406 611.367188 133.328125 609.179688 133.328125 C 605.582031 133.328125 602.753906 132.171875 600.828125 129.988281 C 598.769531 127.804688 597.742188 124.976562 597.742188 121.503906 C 597.742188 118.164062 598.511719 115.207031 600.054688 112.765625 C 601.597656 110.320312 603.523438 108.394531 605.96875 107.109375 C 608.410156 105.824219 610.980469 105.179688 613.679688 105.179688 C 617.019531 105.179688 619.847656 106.335938 622.292969 108.652344 L 622.546875 107.496094 C 622.675781 106.851562 622.933594 106.464844 623.449219 106.082031 C 623.960938 105.695312 624.476562 105.4375 625.117188 105.4375 C 625.761719 105.4375 626.402344 105.695312 626.789062 106.082031 C 627.304688 106.59375 627.433594 107.109375 627.433594 107.878906 L 627.304688 108.652344 L 625.117188 121.375 C 624.863281 123.046875 624.605469 124.460938 624.605469 125.746094 C 624.605469 127.03125 624.863281 128.058594 625.503906 128.832031 C 626.019531 129.601562 626.917969 130.117188 628.074219 130.117188 C 630.902344 130.117188 632.960938 128.960938 634.5 126.515625 C 636.042969 124.074219 636.816406 120.863281 636.816406 116.75 C 636.816406 112.636719 635.785156 109.035156 633.601562 106.082031 C 631.546875 103.125 628.71875 100.8125 625.375 99.398438 C 622.035156 97.855469 618.433594 97.082031 614.835938 97.082031 C 610.464844 97.082031 606.222656 98.238281 602.496094 100.554688 C 598.640625 102.867188 595.554688 105.953125 593.371094 109.808594 C 591.058594 113.664062 589.902344 117.777344 589.902344 122.277344 C 589.902344 125.617188 590.671875 128.703125 592.34375 131.789062 C 593.886719 134.871094 596.199219 137.3125 599.285156 139.113281 C 602.367188 141.042969 605.839844 141.941406 610.082031 141.941406 C 612.78125 141.941406 615.222656 141.683594 617.148438 141.171875 C 619.207031 140.65625 621.519531 139.886719 624.089844 138.855469 C 624.347656 138.726562 624.605469 138.726562 624.863281 138.726562 C 625.375 138.726562 625.761719 138.855469 626.019531 139.242188 C 626.277344 139.5 626.53125 139.886719 626.53125 140.398438 C 626.53125 140.65625 626.402344 141.042969 626.277344 141.296875 C 626.148438 141.554688 625.890625 141.8125 625.632812 141.941406 C 620.878906 144.253906 615.734375 145.539062 610.082031 145.539062 C 605.453125 145.15625 601.339844 144.125 597.742188 141.941406 Z M 620.75 119.320312 L 621.777344 113.019531 C 619.847656 110.964844 617.277344 109.9375 614.195312 109.9375 C 612.265625 109.9375 610.464844 110.320312 608.796875 111.222656 C 607.125 112.121094 605.710938 113.277344 604.683594 114.949219 C 603.652344 116.621094 603.140625 118.546875 603.140625 120.863281 C 603.140625 123.433594 603.910156 125.359375 605.324219 126.773438 C 606.738281 128.058594 608.667969 128.703125 610.851562 128.703125 C 616.507812 128.703125 619.71875 125.488281 620.75 119.320312 Z M 620.75 119.320312 " fill-opacity="1" fill-rule="nonzero"/><path fill="#8d95ff" d="M 595.941406 140.269531 C 592.34375 138.085938 589.644531 135.257812 587.585938 131.789062 C 585.660156 128.1875 584.632812 124.460938 584.632812 120.347656 C 584.632812 115.335938 585.917969 110.578125 588.488281 106.210938 C 591.058594 101.839844 594.527344 98.367188 598.898438 95.667969 C 603.269531 93.097656 608.023438 91.683594 613.035156 91.683594 C 617.664062 91.683594 621.90625 92.714844 625.761719 94.640625 C 629.617188 96.570312 632.832031 99.398438 635.144531 102.867188 C 637.457031 106.335938 638.613281 110.320312 638.613281 114.820312 C 638.613281 117.648438 638.230469 120.347656 637.328125 122.789062 C 636.429688 125.359375 635.144531 127.417969 633.214844 128.960938 C 631.417969 130.628906 628.976562 131.402344 626.148438 131.402344 C 623.960938 131.402344 622.164062 130.886719 620.878906 129.988281 C 619.59375 128.960938 618.820312 127.804688 618.5625 126.515625 C 617.148438 128.1875 615.480469 129.472656 613.550781 130.375 C 611.621094 131.144531 609.566406 131.660156 607.382812 131.660156 C 603.78125 131.660156 600.953125 130.503906 599.027344 128.316406 C 596.96875 126.132812 595.941406 123.304688 595.941406 119.832031 C 595.941406 116.492188 596.714844 113.535156 598.253906 111.09375 C 599.796875 108.652344 601.726562 106.722656 604.167969 105.4375 C 606.609375 104.152344 609.179688 103.511719 611.878906 103.511719 C 615.222656 103.511719 618.050781 104.667969 620.492188 106.980469 L 620.75 105.824219 C 620.878906 105.179688 621.132812 104.796875 621.648438 104.410156 C 622.164062 104.023438 622.675781 103.765625 623.320312 103.765625 C 623.960938 103.765625 624.605469 104.023438 624.992188 104.410156 C 625.503906 104.921875 625.632812 105.4375 625.632812 106.210938 L 625.503906 106.980469 L 623.320312 119.707031 C 623.0625 121.375 622.804688 122.789062 622.804688 124.074219 C 622.804688 125.359375 623.0625 126.390625 623.703125 127.160156 C 624.21875 127.929688 625.117188 128.445312 626.277344 128.445312 C 629.101562 128.445312 631.160156 127.289062 632.703125 124.847656 C 634.246094 122.40625 635.015625 119.191406 635.015625 115.078125 C 635.015625 110.964844 633.988281 107.367188 631.800781 104.410156 C 629.746094 101.453125 626.917969 99.140625 623.578125 97.726562 C 620.234375 96.183594 616.636719 95.414062 613.035156 95.414062 C 608.667969 95.414062 604.425781 96.570312 600.699219 98.882812 C 596.839844 101.195312 593.757812 104.28125 591.570312 108.136719 C 589.257812 111.992188 588.101562 116.105469 588.101562 120.605469 C 588.101562 123.945312 588.871094 127.03125 590.542969 130.117188 C 592.085938 133.199219 594.398438 135.644531 597.484375 137.441406 C 600.570312 139.371094 604.039062 140.269531 608.28125 140.269531 C 610.980469 140.269531 613.421875 140.011719 615.351562 139.5 C 617.40625 138.984375 619.71875 138.214844 622.292969 137.1875 C 622.546875 137.058594 622.804688 137.058594 623.0625 137.058594 C 623.578125 137.058594 623.960938 137.1875 624.21875 137.570312 C 624.476562 137.828125 624.734375 138.214844 624.734375 138.726562 C 624.734375 138.984375 624.605469 139.371094 624.476562 139.628906 C 624.347656 139.886719 624.089844 140.140625 623.832031 140.269531 C 619.078125 142.585938 613.9375 143.871094 608.28125 143.871094 C 603.652344 143.484375 599.539062 142.457031 595.941406 140.269531 Z M 618.949219 117.519531 L 619.976562 111.222656 C 618.050781 109.164062 615.480469 108.136719 612.394531 108.136719 C 610.464844 108.136719 608.667969 108.523438 606.996094 109.421875 C 605.324219 110.320312 603.910156 111.480469 602.882812 113.148438 C 601.855469 114.820312 601.339844 116.75 601.339844 119.0625 C 601.339844 121.632812 602.113281 123.5625 603.523438 124.976562 C 604.9375 126.261719 606.867188 126.902344 609.050781 126.902344 C 614.707031 126.902344 617.921875 123.816406 618.949219 117.519531 Z M 618.949219 117.519531 " fill-opacity="1" fill-rule="nonzero"/><path fill="#e1e5ff" d="M 1015.597656 548.109375 L 1011.101562 548.109375 L 1011.101562 542.710938 C 1011.101562 535.125 1004.929688 528.828125 997.21875 528.828125 C 989.636719 528.828125 983.339844 534.996094 983.339844 542.710938 L 983.339844 548.109375 L 979.996094 548.109375 C 978.324219 548.109375 977.039062 549.394531 977.039062 551.066406 L 977.039062 580.882812 C 977.039062 582.554688 978.324219 583.839844 979.996094 583.839844 L 1015.601562 583.839844 C 1017.269531 583.839844 1018.554688 582.554688 1018.554688 580.882812 L 1018.554688 551.066406 C 1018.554688 549.394531 1017.269531 548.109375 1015.597656 548.109375 Z M 1006.34375 548.109375 L 988.09375 548.109375 L 988.09375 542.710938 C 988.09375 537.695312 992.207031 533.585938 997.21875 533.585938 C 1002.230469 533.585938 1006.34375 537.695312 1006.34375 542.710938 Z M 1006.34375 548.109375 " fill-opacity="1" fill-rule="nonzero"/><path fill="#fc6054" d="M 1012.902344 545.152344 L 1008.402344 545.152344 L 1008.402344 539.753906 C 1008.402344 532.171875 1002.230469 525.871094 994.519531 525.871094 C 986.9375 525.871094 980.640625 532.042969 980.640625 539.753906 L 980.640625 545.152344 L 977.296875 545.152344 C 975.625 545.152344 974.339844 546.4375 974.339844 548.109375 L 974.339844 577.929688 C 974.339844 579.597656 975.625 580.882812 977.296875 580.882812 L 1012.902344 580.882812 C 1014.570312 580.882812 1015.855469 579.597656 1015.855469 577.929688 L 1015.855469 548.109375 C 1015.855469 546.566406 1014.570312 545.152344 1012.902344 545.152344 Z M 1003.644531 545.152344 L 985.394531 545.152344 L 985.394531 539.753906 C 985.394531 534.742188 989.507812 530.628906 994.519531 530.628906 C 999.53125 530.628906 1003.644531 534.742188 1003.644531 539.753906 Z M 1003.644531 545.152344 " fill-opacity="1" fill-rule="nonzero"/><path fill="#ffffff" d="M 998.246094 569.832031 L 991.949219 569.832031 C 991.5625 569.832031 991.308594 569.445312 991.433594 569.1875 L 993.105469 562.761719 C 992.207031 562.117188 991.691406 561.089844 991.691406 559.933594 C 991.691406 558.003906 993.234375 556.464844 995.164062 556.464844 C 997.089844 556.464844 998.632812 558.003906 998.632812 559.933594 C 998.632812 561.089844 997.992188 562.117188 997.21875 562.761719 L 998.890625 569.1875 C 998.890625 569.445312 998.632812 569.832031 998.246094 569.832031 Z M 998.246094 569.832031 " fill-opacity="1" fill-rule="nonzero"/><path fill="#fcbba4" d="M 569.207031 696.695312 C 569.207031 696.695312 559.824219 711.089844 536.6875 698.878906 L 536.558594 697.078125 L 535.402344 681.785156 L 567.792969 681.785156 L 568.4375 687.953125 Z M 569.207031 696.695312 " fill-opacity="1" fill-rule="nonzero"/><path fill="#f2a07c" d="M 568.4375 687.953125 C 568.050781 687.824219 567.535156 687.824219 567.152344 687.695312 C 564.324219 687.054688 561.496094 686.023438 558.539062 685.898438 C 555.582031 685.769531 552.371094 686.796875 550.957031 689.367188 C 550.054688 691.039062 550.054688 693.09375 549.027344 694.636719 C 547.742188 696.949219 544.785156 697.980469 542.085938 698.105469 C 540.160156 698.105469 538.359375 697.722656 536.558594 697.078125 L 535.402344 681.785156 L 567.792969 681.785156 Z M 568.4375 687.953125 " fill-opacity="1" fill-rule="nonzero"/><path fill="#fcbba4" d="M 446.972656 674.972656 L 445.6875 687.054688 L 445.429688 689.882812 C 445.429688 689.882812 434.890625 700.421875 417.152344 688.46875 C 415.867188 687.566406 414.453125 686.539062 413.167969 685.511719 L 415.484375 668.542969 Z M 446.972656 674.972656 " fill-opacity="1" fill-rule="nonzero"/><path fill="#f2a07c" d="M 446.972656 674.972656 L 445.6875 687.054688 C 442.472656 686.667969 439.390625 685.382812 436.304688 684.226562 C 432.0625 682.8125 427.308594 681.65625 423.324219 683.710938 C 421.007812 684.867188 419.210938 686.925781 417.152344 688.339844 C 415.867188 687.4375 414.453125 686.410156 413.167969 685.382812 L 415.484375 668.414062 Z M 446.972656 674.972656 " fill-opacity="1" fill-rule="nonzero"/><path stroke-linecap="round" transform="matrix(1.285322, 0, 0, 1.285338, 273.197599, -50.730702)" fill="none" stroke-linejoin="round" d="M 230.299817 581.501452 C 230.299817 581.501452 222.999847 592.700474 204.99913 583.200299 L 203.999259 569.90127 L 229.199655 569.90127 Z M 230.299817 581.501452 " stroke="#112544" stroke-width="1.5" stroke-opacity="1" stroke-miterlimit="10"/><path fill="#112544" d="M 607.894531 725.484375 L 607.894531 725.613281 C 607.894531 726.769531 606.996094 727.671875 605.839844 727.671875 L 532.191406 727.671875 C 531.03125 727.671875 530.132812 726.769531 530.132812 725.613281 C 530.261719 723.6875 530.261719 720.214844 529.875 713.917969 C 529.234375 702.09375 536.558594 698.878906 536.558594 698.878906 C 559.695312 711.089844 569.078125 696.695312 569.078125 696.695312 L 578.71875 706.078125 L 596.839844 711.347656 C 603.398438 713.015625 607.894531 718.929688 607.894531 725.484375 Z M 607.894531 725.484375 " fill-opacity="1" fill-rule="nonzero"/><path fill="#66d3d8" d="M 599.414062 564.945312 L 588.488281 671.242188 C 587.84375 677.027344 583.859375 681.65625 578.460938 683.324219 C 577.175781 683.710938 575.890625 683.839844 574.476562 683.839844 L 529.363281 683.839844 C 520.363281 683.839844 513.554688 675.355469 515.738281 666.617188 L 541.1875 558.777344 C 542.472656 553.507812 542.085938 547.980469 540.160156 542.96875 C 520.109375 491.039062 511.109375 445.410156 513.808594 406.59375 L 577.304688 406.59375 L 580.902344 429.085938 L 598.898438 539.882812 C 600.3125 548.109375 600.441406 556.464844 599.414062 564.945312 Z M 599.414062 564.945312 " fill-opacity="1" fill-rule="nonzero"/><path fill="#47b6c3" d="M 575.375 678.441406 C 576.789062 679.726562 577.820312 681.398438 578.460938 683.070312 C 577.175781 683.453125 575.890625 683.582031 574.476562 683.582031 L 529.363281 683.582031 C 520.363281 683.582031 513.554688 675.101562 515.738281 666.359375 L 541.1875 558.519531 C 542.472656 553.25 542.085938 547.722656 540.160156 542.710938 C 520.109375 490.78125 511.109375 445.152344 513.808594 406.335938 L 577.304688 406.335938 L 580.902344 428.828125 C 569.59375 436.539062 556.097656 441.296875 547.484375 451.964844 C 534.246094 468.160156 537.332031 492.324219 545.429688 511.734375 C 553.527344 531.011719 565.738281 549.007812 569.59375 569.574219 C 573.191406 589.496094 568.050781 610.960938 555.710938 627.027344 C 550.957031 633.328125 545.042969 638.851562 541.703125 645.921875 C 538.230469 652.992188 537.972656 662.503906 543.757812 667.902344 C 551.984375 675.613281 567.152344 670.601562 575.375 678.441406 Z M 575.375 678.441406 " fill-opacity="1" fill-rule="nonzero"/><path stroke-linecap="round" transform="matrix(1.285322, 0, 0, 1.285338, 273.197599, -50.730702)" fill="none" stroke-linejoin="round" d="M 208.500198 474.100242 L 188.700321 558.000219 C 187.098703 564.898939 192.298641 571.399538 199.300777 571.399538 L 234.399592 571.399538 C 240.000693 571.399538 244.699175 567.199525 245.300921 561.601533 L 253.801344 478.898955 C 254.600633 472.401394 254.500342 465.800505 253.500471 459.299905 L 236.700207 355.600299 L 187.299286 355.600299 C 185.098961 385.799672 192.201389 421.299206 207.8012 461.700781 C 209.199196 465.700215 209.500069 470.000518 208.500198 474.100242 Z M 208.500198 474.100242 " stroke="#112544" stroke-width="1.5" stroke-opacity="1" stroke-miterlimit="10"/><path stroke-linecap="round" transform="matrix(1.285322, 0, 0, 1.285338, 273.197599, -50.730702)" fill="none" stroke-linejoin="round" d="M 133.89888 576.20129 C 133.89888 576.20129 124.498877 585.701465 108.798775 572.700266 L 110.600974 559.401237 L 135.199624 564.500819 Z M 133.89888 576.20129 " stroke="#112544" stroke-width="1.5" stroke-opacity="1" stroke-miterlimit="10"/><path fill="#112544" d="M 477.179688 726 L 477.179688 726.128906 C 476.921875 727.15625 475.894531 727.925781 474.863281 727.671875 L 402.757812 712.761719 C 401.601562 712.503906 400.957031 711.347656 401.214844 710.316406 C 401.730469 708.519531 402.5 705.046875 403.402344 698.878906 C 405.070312 687.183594 413.039062 685.511719 413.039062 685.511719 C 433.21875 702.21875 445.300781 690.007812 445.300781 690.007812 L 452.886719 701.191406 L 469.59375 710.0625 C 475.378906 712.890625 478.59375 719.445312 477.179688 726 Z M 477.179688 726 " fill-opacity="1" fill-rule="nonzero"/><path fill="#66d3d8" d="M 541.703125 406.464844 L 540.03125 420.089844 L 524.863281 542.453125 C 523.578125 552.351562 521.007812 562.117188 517.152344 571.371094 L 474.863281 669.574219 C 472.808594 674.328125 468.308594 677.542969 463.039062 678.054688 C 462.652344 678.054688 462.269531 678.054688 461.882812 678.054688 L 408.027344 678.054688 C 397.230469 678.054688 390.546875 666.359375 395.816406 657.105469 L 453.269531 556.847656 C 456.226562 551.578125 457.640625 545.539062 457.511719 539.367188 C 456.097656 498.367188 458.667969 457.621094 479.105469 406.59375 L 541.703125 406.59375 Z M 541.703125 406.464844 " fill-opacity="1" fill-rule="nonzero"/><path fill="#47b6c3" d="M 541.703125 406.464844 L 540.03125 420.089844 C 531.417969 416.234375 522.292969 414.820312 511.753906 417.773438 C 496.328125 421.886719 483.605469 434.613281 479.234375 450.035156 C 473.835938 469.445312 481.546875 489.753906 484.761719 509.675781 C 491.574219 551.964844 476.40625 597.078125 445.429688 626.640625 C 436.046875 635.640625 415.867188 649.523438 425.378906 658.390625 C 431.164062 663.789062 441.445312 659.03125 448.773438 662.246094 C 455.585938 665.203125 461.496094 670.988281 463.167969 678.183594 C 462.78125 678.183594 462.398438 678.183594 462.011719 678.183594 L 408.15625 678.183594 C 397.359375 678.183594 390.675781 666.488281 395.945312 657.234375 L 453.398438 556.976562 C 456.355469 551.707031 457.769531 545.667969 457.640625 539.496094 C 456.226562 498.496094 458.796875 457.75 479.234375 406.722656 L 541.703125 406.722656 Z M 541.703125 406.464844 " fill-opacity="1" fill-rule="nonzero"/><path stroke-linecap="round" transform="matrix(1.285322, 0, 0, 1.285338, 273.197599, -50.730702)" fill="none" stroke-linejoin="round" d="M 104.899582 566.998945 L 146.799951 566.998945 C 151.200599 566.998945 155.099792 564.400529 156.798661 560.401095 L 189.700192 483.998537 C 192.699805 476.798948 194.699547 469.301529 195.699418 461.500202 L 208.801071 355.700589 L 160.099147 355.700589 C 144.201502 395.400136 142.198721 427.201106 143.298883 458.999036 C 143.499465 463.700498 142.299012 468.398921 140.001436 472.598935 L 95.298996 550.600051 C 91.299512 557.899929 96.59974 566.998945 104.899582 566.998945 Z M 104.899582 566.998945 " stroke="#112544" stroke-width="1.5" stroke-opacity="1" stroke-miterlimit="10"/><path fill="#8d95ff" d="M 631.160156 413.148438 L 630.132812 413.789062 C 625.246094 416.488281 618.949219 414.949219 615.992188 410.191406 L 577.949219 350.039062 L 577.691406 382.042969 L 577.433594 406.59375 L 479.105469 406.59375 C 477.691406 394.894531 475.765625 378.574219 475.121094 362.25 C 474.222656 338.855469 475.765625 315.332031 485.148438 304.921875 C 487.589844 302.222656 490.289062 299.78125 492.988281 297.851562 C 511.882812 283.972656 536.175781 285.128906 536.175781 285.128906 L 554.941406 289.5 L 559.183594 290.527344 C 569.207031 292.839844 578.589844 297.082031 586.945312 302.996094 C 590.671875 305.695312 596.199219 312.507812 602.496094 321.632812 C 615.09375 339.496094 630.515625 365.847656 639.898438 383.96875 C 645.554688 394.253906 641.570312 407.363281 631.160156 413.148438 Z M 631.160156 413.148438 " fill-opacity="1" fill-rule="nonzero"/><path fill="#757bff" d="M 602.625 321.375 C 598.382812 318.03125 594.015625 314.820312 589.386719 311.863281 C 582.058594 307.234375 574.089844 303.378906 565.738281 300.550781 C 550.828125 295.539062 535.019531 293.484375 519.335938 294.769531 C 511.882812 295.410156 504.8125 297.597656 497.484375 298.496094 C 495.300781 298.753906 494.015625 298.367188 493.117188 297.597656 C 512.011719 283.714844 536.304688 284.871094 536.304688 284.871094 L 555.070312 289.242188 L 559.308594 290.269531 C 569.335938 292.582031 578.71875 296.824219 587.074219 302.738281 C 590.800781 305.4375 596.328125 312.378906 602.625 321.375 Z M 602.625 321.375 " fill-opacity="1" fill-rule="nonzero"/><path stroke-linecap="round" transform="matrix(1.285322, 0, 0, 1.285338, 273.197599, -50.730702)" fill-opacity="1" fill="#ffffff" fill-rule="nonzero" stroke-linejoin="round" d="M 220.49865 264.798563 L 220.401398 265.300012 C 218.69949 271.299163 213.101428 275.499176 206.801329 275.499176 C 205.500585 275.499176 204.09955 275.298597 202.798806 274.900477 C 199.200486 273.900618 196.200873 271.499742 194.398674 268.199298 C 193.398803 266.40016 192.800096 264.400443 192.699805 262.400726 C 199.501359 261.200289 204.701296 261.200289 204.701296 261.200289 L 219.301236 264.601023 Z M 220.49865 264.798563 " stroke="#112544" stroke-width="1.5" stroke-opacity="1" stroke-miterlimit="10"/><path fill="#757bff" d="M 577.5625 381.914062 L 577.304688 406.464844 L 478.976562 406.464844 C 477.5625 394.765625 475.636719 378.445312 474.992188 362.121094 C 478.335938 359.804688 482.449219 358.519531 486.433594 357.75 C 492.472656 356.464844 498.898438 355.566406 503.65625 351.582031 C 507.382812 348.496094 508.027344 347.082031 510.082031 342.710938 C 511.109375 340.398438 504.8125 332.8125 508.15625 333.328125 C 511.367188 333.84375 518.949219 343.738281 519.464844 346.054688 C 521.265625 354.152344 526.019531 355.949219 531.417969 362.378906 C 539.515625 372.144531 551.46875 378.828125 564.066406 380.5 C 568.566406 381.144531 573.191406 381.269531 577.5625 381.914062 Z M 577.5625 381.914062 " fill-opacity="1" fill-rule="nonzero"/><path stroke-linecap="round" transform="matrix(1.285322, 0, 0, 1.285338, 273.197599, -50.730702)" fill-opacity="1" fill="#fcbba4" fill-rule="nonzero" stroke-linejoin="round" d="M 285.399092 338.000967 C 279.600448 326.899195 271.300607 312.199148 263.101057 299.498818 C 253.998887 300.200847 245.300921 304.40086 237.00108 311.801028 L 266.498794 358.599875 C 268.79941 362.301478 273.701513 363.599167 277.500415 361.39887 L 278.399995 360.900461 C 286.599545 356.399578 289.699449 346.200414 285.399092 338.000967 Z M 285.399092 338.000967 " stroke="#112544" stroke-width="1.5" stroke-opacity="1" stroke-miterlimit="10"/><path stroke-linecap="round" transform="matrix(1.285322, 0, 0, 1.285338, 273.197599, -50.730702)" fill="none" stroke-linejoin="round" d="M 278.500286 360.900461 L 277.700997 361.39887 C 273.899056 363.498877 268.999992 362.301478 266.699376 358.599875 L 237.101371 311.801028 L 236.700207 355.800879 L 160.199438 355.800879 C 157.600989 333.600374 153.799048 291.60024 165.00125 276.699614 C 171.599183 267.901468 183.600675 264.099574 192.699805 262.501016 C 199.501359 261.300578 204.701296 261.300578 204.701296 261.300578 L 219.301236 264.701313 L 220.49865 264.999143 L 222.598683 265.500592 C 230.400108 267.299729 237.700078 270.600174 244.200759 275.201346 C 252.801473 281.401076 274.400511 317.0009 285.399092 338.101257 C 289.699449 346.200414 286.599545 356.399578 278.500286 360.900461 Z M 278.500286 360.900461 " stroke="#112544" stroke-width="1.5" stroke-opacity="1" stroke-miterlimit="10"/><path fill="#efa130" d="M 707.636719 347.59375 C 707.507812 347.339844 707.378906 347.082031 707.378906 346.953125 C 703.394531 338.726562 693.496094 335.386719 685.398438 339.371094 L 505.582031 426.902344 C 488.101562 406.976562 458.027344 400.679688 431.933594 413.40625 C 411.625 423.300781 398.902344 442.324219 396.589844 462.632812 C 395.433594 473.171875 397.101562 484.097656 401.988281 494.253906 C 416.382812 523.816406 453.269531 535.640625 484.117188 520.601562 C 508.796875 508.648438 522.292969 483.199219 519.464844 458.390625 C 519.464844 457.878906 519.335938 457.363281 519.335938 456.847656 L 519.722656 456.722656 L 582.832031 426 L 594.140625 449.136719 C 595.554688 452.09375 599.15625 453.378906 602.238281 451.964844 L 618.820312 443.867188 C 621.777344 442.453125 623.0625 438.726562 621.648438 435.769531 L 619.207031 430.628906 L 610.464844 412.503906 L 615.605469 410.0625 L 651.726562 392.453125 L 672.03125 433.96875 C 673.445312 436.925781 677.046875 438.210938 680.003906 436.796875 L 696.582031 428.699219 C 699.539062 427.285156 700.824219 423.6875 699.410156 420.601562 L 696.96875 415.460938 L 679.230469 378.957031 L 684.371094 376.515625 L 700.179688 368.804688 C 707.636719 365.203125 711.105469 355.691406 707.636719 347.59375 Z M 423.964844 457.621094 C 424.738281 456.847656 425.636719 456.207031 426.664062 455.691406 C 428.851562 454.664062 431.292969 454.535156 433.476562 455.308594 C 435.664062 456.078125 437.460938 457.621094 438.617188 459.804688 L 450.570312 484.484375 L 452.113281 487.570312 C 454.300781 492.066406 452.371094 497.335938 448 499.523438 C 443.503906 501.707031 438.234375 499.78125 436.046875 495.410156 L 422.550781 467.773438 C 420.753906 464.175781 421.523438 460.191406 423.964844 457.621094 Z M 423.964844 457.621094 " fill-opacity="1" fill-rule="nonzero"/><path fill="#ffc25e" d="M 707.378906 346.953125 C 703.394531 338.726562 693.496094 335.386719 685.398438 339.371094 L 505.582031 426.902344 C 488.101562 406.976562 458.027344 400.679688 431.933594 413.40625 C 411.625 423.300781 398.902344 442.324219 396.589844 462.632812 C 397.359375 468.929688 399.03125 475.230469 401.988281 481.269531 C 416.382812 510.832031 453.269531 522.660156 484.117188 507.621094 C 504.425781 497.722656 517.28125 478.699219 519.464844 458.390625 C 519.59375 457.878906 519.59375 457.234375 519.59375 456.722656 C 519.980469 452.480469 519.851562 448.109375 519.207031 443.867188 L 582.703125 412.890625 L 594.015625 436.027344 C 595.429688 438.984375 599.027344 440.269531 602.113281 438.855469 L 618.691406 430.757812 C 618.820312 430.757812 618.820312 430.628906 618.949219 430.628906 L 610.210938 412.503906 L 605.066406 401.964844 L 651.339844 379.34375 L 671.648438 420.859375 C 673.0625 423.816406 676.660156 425.101562 679.617188 423.6875 L 696.195312 415.589844 C 696.324219 415.589844 696.324219 415.460938 696.453125 415.460938 L 678.714844 378.957031 L 673.574219 368.417969 L 699.667969 355.691406 C 703.394531 353.894531 706.09375 350.9375 707.636719 347.339844 C 707.507812 347.46875 707.378906 347.210938 707.378906 346.953125 Z M 450.445312 497.335938 C 449.671875 498.109375 448.902344 498.75 447.871094 499.265625 C 443.375 501.449219 438.105469 499.523438 435.917969 495.152344 L 423.964844 470.472656 L 422.421875 467.390625 C 420.238281 463.019531 422.039062 457.621094 426.535156 455.433594 C 428.722656 454.40625 431.164062 454.277344 433.347656 455.050781 C 435.535156 455.820312 437.332031 457.363281 438.488281 459.546875 L 451.984375 487.183594 C 453.65625 490.78125 452.886719 494.765625 450.445312 497.335938 Z M 450.445312 497.335938 " fill-opacity="1" fill-rule="nonzero"/><path stroke-linecap="round" transform="matrix(1.285322, 0, 0, 1.285338, 273.197599, -50.730702)" fill="none" stroke-linejoin="round" d="M 331.298945 366.799322 L 315.498552 334.499943 L 331.8004 326.601365 C 338.100499 323.5015 340.799239 315.800462 337.699335 309.500442 C 334.599431 303.100132 326.901336 300.498677 320.601237 303.598542 L 180.701353 371.701363 C 167.101283 356.198999 143.700047 351.299996 123.398715 361.20133 C 99.398771 372.798473 88.998897 401.001167 100.2011 424.000951 C 111.400263 447.000735 140.098688 456.20004 164.098631 444.499569 C 183.700966 434.999394 194.201131 414.601066 191.499352 394.898688 L 240.900273 370.798756 L 249.69853 388.799247 C 250.798692 391.099833 253.600762 392.099692 255.998629 390.999543 L 268.899701 384.699523 C 271.200316 383.599375 272.200187 380.70009 271.100025 378.399503 L 262.298728 360.399012 L 294.300679 344.799397 L 310.101072 377.098776 C 311.201234 379.399362 314.000265 380.39922 316.30088 379.299072 L 329.198912 372.999052 C 331.499527 371.999194 332.499398 369.200198 331.298945 366.799322 Z M 135.898622 428.000385 C 132.400593 429.699232 128.300818 428.200964 126.59891 424.80023 L 116.098745 403.298714 C 114.399876 399.901019 115.901202 395.701006 119.29894 393.999119 C 121.000848 393.19984 122.900299 393.09955 124.599168 393.701289 C 126.301076 394.299988 127.699072 395.500426 128.598652 397.199274 L 139.098817 418.700789 C 140.800725 422.101524 139.299399 426.298498 135.898622 428.000385 Z M 135.898622 428.000385 " stroke="#112544" stroke-width="1.5" stroke-opacity="1" stroke-miterlimit="10"/><path fill="#fc6054" d="M 569.207031 252.09375 C 563.167969 253.765625 556.996094 250.296875 555.324219 244.253906 C 554.941406 242.839844 554.8125 241.296875 554.941406 239.882812 C 553.910156 239.753906 553.011719 239.628906 551.984375 239.371094 C 550.183594 244.898438 546.070312 249.523438 540.542969 251.582031 C 541.058594 256.980469 537.71875 262.121094 532.320312 263.664062 C 526.277344 265.332031 520.109375 261.863281 518.4375 255.824219 C 517.539062 252.738281 518.050781 249.652344 519.59375 247.082031 C 517.410156 244.769531 515.738281 241.941406 514.839844 238.726562 C 512.011719 228.316406 518.050781 217.648438 528.335938 214.820312 C 533.730469 213.277344 539.128906 214.175781 543.5 216.875 C 545.429688 213.792969 548.511719 211.351562 552.371094 210.191406 C 560.46875 208.007812 568.820312 212.636719 571.007812 220.734375 C 571.90625 224.203125 571.648438 227.671875 570.363281 230.757812 C 573.578125 232.042969 576.019531 234.742188 577.046875 238.214844 C 578.71875 244.253906 575.25 250.425781 569.207031 252.09375 Z M 569.207031 252.09375 " fill-opacity="1" fill-rule="nonzero"/><path fill="#e64b38" d="M 545.171875 234.871094 C 545.171875 234.871094 545.042969 241.167969 552.113281 244.898438 L 554.039062 239.371094 C 550.3125 239.113281 547.613281 237.3125 545.171875 234.871094 Z M 545.171875 234.871094 " fill-opacity="1" fill-rule="nonzero"/><path fill="#e64b38" d="M 570.878906 220.089844 C 567.152344 215.71875 561.109375 213.664062 555.199219 215.335938 C 551.339844 216.363281 548.257812 218.804688 546.328125 222.019531 C 541.957031 219.320312 536.429688 218.417969 531.160156 219.960938 C 520.75 222.789062 514.710938 233.457031 517.664062 243.867188 C 517.792969 244.382812 517.921875 244.898438 518.179688 245.410156 C 516.636719 243.484375 515.480469 241.167969 514.839844 238.726562 C 512.011719 228.316406 518.050781 217.648438 528.335938 214.820312 C 533.730469 213.277344 539.128906 214.175781 543.5 216.875 C 545.429688 213.792969 548.511719 211.351562 552.371094 210.191406 C 560.210938 208.007812 568.308594 212.378906 570.878906 220.089844 Z M 570.878906 220.089844 " fill-opacity="1" fill-rule="nonzero"/><path stroke-linecap="round" transform="matrix(1.285322, 0, 0, 1.285338, 273.197599, -50.730702)" fill="none" stroke-linejoin="round" d="M 230.299817 235.599049 C 225.601335 236.899777 220.799523 234.201071 219.498779 229.499609 C 219.200945 228.399461 219.100654 227.199023 219.200945 226.098874 C 218.398617 225.998585 217.699619 225.901334 216.90033 225.700755 C 215.499295 230.001058 212.2991 233.599332 207.998743 235.200929 C 208.399907 239.400943 205.801458 243.400377 201.601392 244.600815 C 196.899871 245.898503 192.101098 243.199797 190.800354 238.501374 C 190.101356 236.100498 190.499481 233.699622 191.699934 231.699905 C 190.001065 229.900768 188.700321 227.700471 188.001323 225.199306 C 185.800999 217.100148 190.499481 208.800411 198.501488 206.600115 C 202.698515 205.399677 206.898581 206.098666 210.299358 208.198673 C 211.800684 205.800836 214.198551 203.901409 217.201203 202.998801 C 223.501302 201.299953 229.998944 204.901267 231.700852 211.201287 C 232.39985 213.899993 232.199268 216.5987 231.199397 218.999575 C 233.700594 219.999434 235.600045 222.099441 236.399334 224.801186 C 237.700078 229.499609 235.001338 234.301361 230.299817 235.599049 Z M 230.299817 235.599049 " stroke="#112544" stroke-width="1.5" stroke-opacity="1" stroke-miterlimit="10"/><path fill="#fcbba4" d="M 577.175781 253.765625 C 576.148438 255.308594 574.476562 256.207031 572.675781 256.078125 C 574.734375 266.746094 568.308594 277.289062 557.640625 280.242188 C 555.839844 280.757812 554.039062 281.015625 552.242188 281.015625 L 552.113281 281.015625 L 551.46875 283.070312 L 550.441406 286.671875 L 549.925781 288.214844 C 548.128906 294.253906 541.828125 297.851562 535.660156 296.054688 C 532.574219 295.152344 530.261719 293.097656 528.71875 290.527344 C 527.304688 287.957031 526.921875 284.871094 527.820312 281.785156 L 530.519531 272.273438 L 531.160156 270.21875 L 532.0625 267.261719 C 530.648438 268.160156 528.847656 268.289062 527.304688 267.519531 C 524.863281 266.234375 523.835938 263.277344 524.992188 260.707031 C 525.890625 258.90625 527.691406 257.878906 529.621094 257.878906 L 529.105469 256.078125 C 528.71875 254.792969 528.460938 253.378906 528.460938 252.09375 C 531.675781 252.996094 535.273438 252.996094 538.746094 252.09375 C 545.300781 250.296875 550.183594 245.28125 552.113281 239.242188 C 554.8125 240.011719 557.640625 240.140625 560.46875 239.371094 C 562.265625 238.855469 563.9375 238.085938 565.480469 236.929688 C 566.894531 238.597656 568.179688 240.65625 568.949219 242.839844 C 569.207031 243.484375 569.464844 244.253906 569.722656 245.027344 L 570.105469 246.953125 C 571.777344 245.925781 573.964844 245.796875 575.632812 246.953125 C 577.949219 248.367188 578.589844 251.453125 577.175781 253.765625 Z M 577.175781 253.765625 " fill-opacity="1" fill-rule="nonzero"/><path fill="#f2a07c" d="M 552.242188 281.015625 L 551.597656 283.070312 L 550.570312 286.671875 C 545.558594 285.386719 543.242188 278.957031 543.242188 278.957031 C 546.714844 280.117188 549.800781 280.886719 552.242188 281.015625 Z M 552.242188 281.015625 " fill-opacity="1" fill-rule="nonzero"/><path fill="#f2a07c" d="M 568.949219 242.839844 C 567.921875 244.511719 566.25 245.796875 564.707031 246.824219 C 561.238281 248.753906 557.125 249.394531 553.140625 249.78125 C 549.15625 250.167969 545.171875 250.425781 541.445312 251.964844 C 539.128906 252.867188 536.6875 254.664062 536.429688 257.238281 C 536.304688 258.523438 536.816406 259.808594 537.074219 261.222656 C 537.84375 264.5625 536.6875 268.417969 534.117188 270.730469 C 533.089844 271.632812 531.933594 272.273438 530.648438 272.53125 L 531.289062 270.476562 L 532.191406 267.519531 C 530.777344 268.417969 528.976562 268.546875 527.433594 267.777344 C 524.992188 266.492188 523.964844 263.535156 525.121094 260.964844 C 526.019531 259.164062 527.820312 258.136719 529.746094 258.136719 L 529.234375 256.335938 C 528.847656 255.050781 528.589844 253.636719 528.589844 252.351562 C 531.804688 253.25 535.402344 253.25 538.875 252.351562 C 545.429688 250.550781 550.3125 245.539062 552.242188 239.5 C 554.941406 240.269531 557.769531 240.398438 560.59375 239.628906 C 562.394531 239.113281 564.066406 238.34375 565.609375 237.183594 C 566.894531 238.726562 568.050781 240.65625 568.949219 242.839844 Z M 568.949219 242.839844 " fill-opacity="1" fill-rule="nonzero"/><path stroke-linecap="round" transform="matrix(1.285322, 0, 0, 1.285338, 273.197599, -50.730702)" fill="none" stroke-linejoin="round" d="M 236.499625 236.899777 C 235.700336 238.100215 234.399592 238.799204 232.998557 238.698915 C 234.600174 246.998651 229.600819 255.201138 221.300978 257.498685 C 219.899943 257.899844 218.498908 258.100423 217.100912 258.100423 L 216.599457 259.698981 L 215.399004 263.798705 C 214.001008 268.500167 209.098905 271.299163 204.300132 269.901184 C 201.899226 269.199156 200.100066 267.600598 198.899613 265.600881 C 197.799451 263.601164 197.498578 261.200289 198.200615 258.799413 L 200.799064 249.800686 L 201.501101 247.5001 C 200.400939 248.199089 198.999904 248.299379 197.799451 247.70068 C 195.9 246.700821 195.100711 244.400235 196.000291 242.400518 C 196.699289 240.999501 198.100324 240.200222 199.598611 240.200222 L 199.200486 238.799204 C 198.899613 237.799346 198.699031 236.699198 198.699031 235.699339 C 201.200228 236.401367 203.999259 236.401367 206.701038 235.699339 C 211.800684 234.301361 215.599586 230.399178 217.100912 225.700755 C 219.200945 226.299454 221.401269 226.399744 223.598554 225.801044 C 224.999589 225.399885 226.300333 224.801186 227.500786 223.898578 C 228.999073 225.700755 230.099235 227.700471 230.801272 230.101347 L 231.099106 231.599616 C 232.39985 230.800337 234.098719 230.700047 235.399463 231.599616 C 237.101371 232.699764 237.599787 235.10064 236.499625 236.899777 Z M 236.499625 236.899777 " stroke="#112544" stroke-width="1.5" stroke-opacity="1" stroke-miterlimit="10"/><path stroke-linecap="round" transform="matrix(1.285322, 0, 0, 1.285338, 273.197599, -50.730702)" fill="none" stroke-linejoin="round" d="M 236.499625 236.899777 C 235.700336 238.100215 234.399592 238.799204 232.998557 238.698915 C 234.600174 246.998651 229.600819 255.201138 221.300978 257.498685 C 219.899943 257.899844 218.498908 258.100423 217.100912 258.100423 L 216.599457 259.698981 L 215.399004 263.798705 C 214.001008 268.500167 209.098905 271.299163 204.300132 269.901184 C 201.899226 269.199156 200.100066 267.600598 198.899613 265.600881 C 197.799451 263.601164 197.498578 261.200289 198.200615 258.799413 L 200.799064 249.800686 L 201.501101 247.5001 C 200.400939 248.199089 198.999904 248.299379 197.799451 247.70068 C 195.9 246.700821 195.100711 244.400235 196.000291 242.400518 C 196.699289 240.999501 198.100324 240.200222 199.598611 240.200222 L 199.200486 238.799204 C 198.899613 237.799346 198.699031 236.699198 198.699031 235.699339 C 201.200228 236.401367 203.999259 236.401367 206.701038 235.699339 C 211.800684 234.301361 215.599586 230.399178 217.100912 225.700755 C 219.200945 226.299454 221.401269 226.399744 223.598554 225.801044 C 224.999589 225.399885 226.300333 224.801186 227.500786 223.898578 C 228.999073 225.700755 230.099235 227.700471 230.801272 230.101347 L 231.099106 231.599616 C 232.39985 230.800337 234.098719 230.700047 235.399463 231.599616 C 237.101371 232.699764 237.599787 235.10064 236.499625 236.899777 Z M 236.499625 236.899777 " stroke="#112544" stroke-width="1.5" stroke-opacity="1" stroke-miterlimit="10"/><path stroke-linecap="round" transform="matrix(1.285322, 0, 0, 1.285338, 273.197599, -50.730702)" fill="none" stroke-linejoin="round" d="M 217.100912 258.100423 C 214.198551 258.100423 211.39952 257.401434 208.901362 256.000417 " stroke="#112544" stroke-width="1.5" stroke-opacity="1" stroke-miterlimit="10"/><path stroke-linecap="round" transform="matrix(1.285322, 0, 0, 1.285338, 273.197599, -50.730702)" fill="none" stroke-linejoin="round" d="M 217.000621 225.700755 C 214.298842 224.901476 211.900975 223.099299 210.399649 220.701462 " stroke="#112544" stroke-width="1.5" stroke-opacity="1" stroke-miterlimit="10"/><path fill="#112544" d="M 564.324219 252.351562 C 564.582031 253.25 564.066406 254.023438 563.167969 254.28125 C 562.265625 254.539062 561.367188 254.023438 561.238281 253.25 C 560.980469 252.351562 561.496094 251.453125 562.394531 251.324219 C 563.292969 251.195312 564.066406 251.453125 564.324219 252.351562 Z M 564.324219 252.351562 " fill-opacity="1" fill-rule="nonzero"/><path fill="#112544" d="M 564.324219 246.3125 C 564.582031 247.082031 562.523438 248.109375 560.59375 248.625 C 558.667969 249.140625 555.96875 249.652344 555.839844 248.882812 C 555.582031 248.109375 558.023438 246.566406 559.824219 246.054688 C 561.753906 245.539062 564.066406 245.667969 564.324219 246.3125 Z M 564.324219 246.3125 " fill-opacity="1" fill-rule="nonzero"/><path fill="#112544" d="M 548.386719 251.195312 C 548.640625 251.964844 546.585938 252.996094 544.65625 253.507812 C 542.730469 254.023438 540.03125 254.539062 539.902344 253.765625 C 539.644531 252.996094 542.085938 251.453125 543.886719 250.9375 C 545.6875 250.425781 548.128906 250.425781 548.386719 251.195312 Z M 548.386719 251.195312 " fill-opacity="1" fill-rule="nonzero"/><path fill="#112544" d="M 547.226562 257.621094 C 547.484375 258.523438 546.972656 259.292969 546.070312 259.550781 C 545.171875 259.808594 544.273438 259.292969 544.144531 258.523438 C 543.886719 257.621094 544.402344 256.722656 545.300781 256.59375 C 546.070312 256.335938 547.101562 256.851562 547.226562 257.621094 Z M 547.226562 257.621094 " fill-opacity="1" fill-rule="nonzero"/><path stroke-linecap="round" transform="matrix(1.285322, 0, 0, 1.285338, 273.197599, -50.730702)" fill="none" stroke-linejoin="round" d="M 218.498908 237.000067 C 218.498908 237.000067 223.200429 242.500808 221.598812 242.400518 C 221.100396 242.400518 219.59907 242.601098 219.59907 242.601098 " stroke="#112544" stroke-width="1.5" stroke-opacity="1" stroke-miterlimit="10"/><path stroke-linecap="round" transform="matrix(1.285322, 0, 0, 1.285338, 273.197599, -50.730702)" fill="none" stroke-linejoin="round" d="M 233.199139 234.79977 L 234.001467 234.599191 " stroke="#112544" stroke-width="1.5" stroke-opacity="1" stroke-miterlimit="10"/><path stroke-linecap="round" transform="matrix(1.285322, 0, 0, 1.285338, 273.197599, -50.730702)" fill="none" stroke-linejoin="round" d="M 198.100324 244.500525 L 198.899613 244.299945 " stroke="#112544" stroke-width="1.5" stroke-opacity="1" stroke-miterlimit="10"/><path fill="#112544" d="M 551.210938 265.976562 C 551.210938 266.234375 551.855469 270.730469 554.296875 273.304688 C 555.070312 274.203125 556.226562 274.84375 557.511719 275.101562 C 557.640625 275.101562 557.769531 275.101562 557.894531 275.101562 C 559.566406 275.101562 560.851562 273.945312 561.882812 272.53125 C 563.808594 269.703125 564.582031 265.71875 564.582031 265.332031 C 564.582031 265.207031 564.582031 265.078125 564.453125 265.078125 C 564.324219 265.078125 564.195312 265.078125 564.195312 265.078125 C 564.195312 265.078125 563.550781 265.460938 562.394531 265.847656 C 560.59375 266.492188 557.382812 267.003906 553.527344 266.234375 C 552.882812 266.105469 552.242188 265.976562 551.726562 265.71875 C 551.597656 265.71875 551.46875 265.71875 551.46875 265.71875 C 551.210938 265.847656 551.210938 265.847656 551.210938 265.976562 Z M 551.210938 265.976562 " fill-opacity="1" fill-rule="nonzero"/><path fill="#fc6054" d="M 555.324219 272.660156 C 555.96875 273.304688 556.738281 273.816406 557.640625 273.945312 C 557.769531 273.945312 557.894531 273.945312 557.894531 273.945312 C 559.183594 273.945312 560.082031 273.175781 560.851562 272.019531 C 560.210938 271.375 559.4375 270.859375 558.539062 270.730469 C 558.410156 270.730469 558.28125 270.730469 558.28125 270.730469 C 556.996094 270.730469 555.96875 271.503906 555.324219 272.660156 Z M 555.324219 272.660156 " fill-opacity="1" fill-rule="nonzero"/><path fill="#ffffff" d="M 553.527344 266.105469 C 554.167969 267.90625 555.839844 269.0625 557.894531 269.0625 C 559.953125 269.0625 561.753906 267.648438 562.394531 265.71875 C 560.46875 266.363281 557.382812 267.003906 553.527344 266.105469 Z M 553.527344 266.105469 " fill-opacity="1" fill-rule="nonzero"/><path stroke-linecap="round" transform="matrix(1.285322, 0, 0, 1.285338, 273.197599, -50.730702)" fill="none" stroke-linejoin="round" d="M 237.101371 311.700739 L 237.101371 303.899411 " stroke="#112544" stroke-width="1.5" stroke-opacity="1" stroke-miterlimit="10"/><path fill="#fcbba4" d="M 602.882812 398.878906 C 606.222656 400.808594 608.796875 402.609375 609.308594 404.664062 C 610.082031 407.75 604.683594 404.535156 600.441406 403.121094 C 603.140625 404.792969 604.9375 406.078125 605.453125 407.75 C 606.351562 410.960938 600.699219 407.878906 596.328125 406.335938 C 598.511719 407.75 600.570312 407.75 600.953125 409.292969 C 601.984375 413.019531 590.285156 410.0625 585.144531 408.648438 C 583.601562 408.261719 582.703125 407.878906 582.703125 407.878906 L 536.816406 402.863281 C 531.804688 402.351562 526.921875 401.453125 522.035156 400.039062 C 512.265625 397.210938 503.269531 392.710938 495.816406 386.285156 C 488.617188 380.113281 482.960938 372.273438 479.621094 362.632812 C 479.492188 362.375 479.363281 361.992188 479.363281 361.734375 C 476.535156 352.867188 475.507812 343.609375 476.664062 334.355469 C 476.792969 332.941406 477.050781 331.785156 477.308594 330.757812 L 506.996094 326.773438 L 509.695312 339.496094 C 513.679688 358.519531 528.078125 373.558594 546.84375 378.316406 L 585.789062 388.210938 C 585.789062 388.210938 594.140625 381.269531 596.839844 383.84375 C 598.640625 385.640625 594.015625 390.78125 594.015625 390.78125 C 594.015625 390.78125 609.050781 394.894531 610.335938 399.78125 C 610.851562 402.480469 606.738281 400.039062 602.882812 398.878906 Z M 602.882812 398.878906 " fill-opacity="1" fill-rule="nonzero"/><path fill="#f2a07c" d="M 585.402344 407.75 C 585.402344 408.136719 585.273438 408.390625 585.015625 408.648438 C 583.472656 408.261719 582.574219 407.878906 582.574219 407.878906 L 536.6875 402.863281 C 531.675781 402.351562 526.792969 401.453125 521.90625 400.039062 C 512.140625 397.210938 503.140625 392.710938 495.6875 386.285156 C 488.488281 380.113281 482.832031 372.273438 479.492188 362.632812 C 479.878906 359.804688 481.292969 357.363281 484.503906 356.851562 C 488.617188 356.207031 489.132812 361.605469 489.773438 364.433594 C 491.832031 372.917969 496.714844 380.757812 503.527344 386.285156 C 507.382812 389.367188 511.753906 391.8125 516.507812 393.226562 C 526.792969 396.179688 537.71875 394.765625 548.386719 395.410156 C 560.339844 396.054688 572.035156 399.265625 582.703125 404.664062 C 584.246094 405.179688 585.660156 406.335938 585.402344 407.75 Z M 585.402344 407.75 " fill-opacity="1" fill-rule="nonzero"/><path stroke-linecap="round" transform="matrix(1.285322, 0, 0, 1.285338, 273.197599, -50.730702)" fill="none" stroke-linejoin="round" d="M 181.801515 293.700247 L 183.898508 303.598542 C 187.001452 318.398878 198.200615 330.09935 212.800555 333.800954 L 243.100597 341.498952 C 243.100597 341.498952 249.601278 336.10154 251.701311 338.101257 C 253.099307 339.499235 249.500987 343.498669 249.500987 343.498669 C 249.500987 343.498669 261.198566 346.698824 262.201477 350.500717 C 262.800183 352.600724 259.599988 350.701297 256.600375 349.798689 C 259.198824 351.299996 261.198566 352.701014 261.59973 354.299571 C 262.201477 356.700447 258.00141 354.199282 254.700924 353.099134 C 256.800957 354.399861 258.198953 355.39972 258.600117 356.700447 C 259.299115 359.198574 254.901506 356.800737 251.500729 355.600299 C 253.199598 356.700447 254.801215 356.700447 255.099049 357.900885 C 256.09892 361.69974 240.900273 356.800737 240.900273 356.800737 L 205.199712 352.898554 C 201.300519 352.500434 197.498578 351.801445 193.699676 350.701297 C 186.098832 348.501 179.099735 344.999976 173.301091 340.000684 C 167.499408 335.098642 163.09876 328.798622 160.500311 320.900044 C 158.299987 314.001325 157.500698 306.798697 158.400278 299.599108 C 158.500569 298.49896 158.701151 297.599391 158.898694 296.800112 " stroke="#112544" stroke-width="1.5" stroke-opacity="1" stroke-miterlimit="10"/><path stroke-linecap="round" transform="matrix(1.285322, 0, 0, 1.285338, 273.197599, -50.730702)" fill-opacity="1" fill="#8d95ff" fill-rule="nonzero" stroke-linejoin="round" d="M 158.801442 296.800112 C 158.60086 297.599391 158.500569 298.49896 158.299987 299.599108 C 157.400407 306.798697 158.199696 314.001325 160.40002 320.900044 C 160.901475 322.598892 161.600473 324.200489 162.299471 325.698757 C 171.900056 318.699748 183.299801 318.101048 197.100453 325.698757 C 190.499481 320.100765 185.800999 312.399728 183.998799 303.598542 L 181.898766 293.700247 " stroke="#112544" stroke-width="1.5" stroke-opacity="1" stroke-miterlimit="10"/><path stroke-linecap="round" transform="matrix(1.285322, 0, 0, 1.285338, 273.197599, -50.730702)" fill-opacity="1" fill="#fcbba4" fill-rule="nonzero" stroke-linejoin="round" d="M 285.19851 355.09885 C 282.600061 357.600016 275.400382 360.800171 272.698603 358.599875 C 271.300607 357.499726 266.799668 350.099558 269.401156 349.500859 C 270.59857 349.300279 271.698732 351.099417 272.899185 352.600724 C 271.501189 349.500859 269.401156 346.698824 270.899443 345.799255 C 271.999605 345.200556 273.601222 347.501142 274.999218 349.300279 C 273.601222 346.300704 271.60148 343.301128 272.798894 343.000259 C 274.30022 342.5991 276.199671 344.899686 277.801288 347.200273 C 276.701126 344.498527 275.099509 342.10069 276.400253 341.498952 C 278.998702 340.298514 283.101516 350.798547 283.101516 350.798547 C 283.101516 350.798547 286.499254 346.999693 287.900289 348.200131 C 290.000322 349.999268 286.800127 353.600582 285.19851 355.09885 Z M 285.19851 355.09885 " stroke="#112544" stroke-width="1.5" stroke-opacity="1" stroke-miterlimit="10"/><path fill="#8d95ff" d="M 721.390625 727.796875 L 924.984375 727.796875 C 932.953125 714.816406 956.730469 673.558594 945.933594 660.960938 C 933.082031 645.921875 898.636719 684.738281 898.636719 684.738281 C 898.636719 684.738281 925.242188 630.628906 906.21875 620.085938 C 883.855469 607.875 853.519531 644.765625 853.519531 644.765625 C 853.519531 644.765625 863.933594 560.191406 831.285156 560.832031 C 800.308594 561.347656 795.039062 652.222656 795.039062 652.222656 C 795.039062 652.222656 752.878906 539.367188 724.089844 550.550781 C 692.855469 562.761719 742.210938 683.710938 742.210938 683.710938 C 742.210938 683.710938 701.082031 624.328125 679.617188 641.9375 C 653.78125 663.144531 709.5625 716.875 721.390625 727.796875 Z M 721.390625 727.796875 " fill-opacity="1" fill-rule="nonzero"/><path fill="#757bff" d="M 867.144531 631.269531 C 867.015625 645.535156 865.601562 656.71875 865.601562 656.71875 C 865.601562 656.71875 891.179688 625.484375 912.644531 629.984375 C 911.875 625.484375 909.816406 622.015625 906.21875 620.085938 C 893.367188 613.144531 877.941406 622.273438 867.144531 631.269531 Z M 867.144531 631.269531 " fill-opacity="1" fill-rule="nonzero"/><path fill="#757bff" d="M 796.324219 638.210938 C 802.878906 653.121094 806.992188 664.175781 806.992188 664.175781 C 806.992188 664.175781 812.261719 573.300781 843.238281 572.785156 C 845.164062 572.785156 846.835938 573.042969 848.507812 573.558594 C 844.910156 565.847656 839.382812 560.703125 831.285156 560.832031 C 808.019531 561.21875 799.28125 612.761719 796.324219 638.210938 Z M 796.324219 638.210938 " fill-opacity="1" fill-rule="nonzero"/><path fill="#757bff" d="M 739.769531 677.671875 C 747.867188 686.925781 753.652344 695.023438 754.164062 695.792969 C 753.007812 692.964844 705.195312 574.714844 736.042969 562.632812 C 740.667969 560.832031 745.554688 562.246094 750.695312 565.71875 C 741.570312 554.277344 732.316406 547.335938 724.089844 550.550781 C 697.097656 561.089844 730.257812 652.863281 739.769531 677.671875 Z M 739.769531 677.671875 " fill-opacity="1" fill-rule="nonzero"/><path fill="#757bff" d="M 718.691406 725.097656 C 699.152344 704.40625 672.03125 669.957031 691.570312 653.890625 C 701.082031 646.179688 714.449219 653.378906 726.402344 663.917969 C 712.519531 648.492188 692.46875 631.398438 679.617188 641.9375 C 655.453125 661.730469 702.753906 710.191406 718.691406 725.097656 Z M 718.691406 725.097656 " fill-opacity="1" fill-rule="nonzero"/><g clip-path="url(#54323f433a)"><path stroke-linecap="round" transform="matrix(1.285322, 0, 0, 1.285338, 273.197599, -50.730702)" fill="none" stroke-linejoin="round" d="M 348.700956 605.698634 L 507.099973 605.698634 C 513.299782 595.59976 531.798915 563.50096 523.398783 553.699916 C 513.400073 541.999445 486.601098 572.198817 486.601098 572.198817 C 486.601098 572.198817 507.300556 530.101433 492.500033 521.898947 C 475.101062 512.398772 451.499244 541.099876 451.499244 541.099876 C 451.499244 541.099876 459.601542 475.30068 434.200564 475.799089 C 410.100329 476.200248 406.000554 546.901486 406.000554 546.901486 C 406.000554 546.901486 373.199315 459.099326 350.800989 467.800222 C 326.500172 477.300397 364.899474 571.399538 364.899474 571.399538 C 364.899474 571.399538 332.900562 525.199391 316.200589 538.89958 C 296.099839 555.398764 339.498495 597.201357 348.700956 605.698634 Z M 348.700956 605.698634 " stroke="#112544" stroke-width="1.5" stroke-opacity="1" stroke-miterlimit="10"/></g><path fill="#b9c3fc" d="M 762.90625 727.796875 L 872.15625 727.796875 C 876.398438 720.859375 889.253906 698.75 883.46875 691.9375 C 876.527344 683.839844 858.019531 704.792969 858.019531 704.792969 C 858.019531 704.792969 872.285156 675.742188 862.003906 670.085938 C 849.921875 663.53125 833.726562 683.324219 833.726562 683.324219 C 833.726562 683.324219 839.253906 637.953125 821.773438 638.210938 C 805.191406 638.46875 802.363281 687.308594 802.363281 687.308594 C 802.363281 687.308594 779.742188 626.769531 764.320312 632.8125 C 747.480469 639.367188 774.085938 704.277344 774.085938 704.277344 C 774.085938 704.277344 751.980469 672.402344 740.414062 681.910156 C 726.53125 693.09375 756.480469 721.886719 762.90625 727.796875 Z M 762.90625 727.796875 " fill-opacity="1" fill-rule="nonzero"/><path fill="#e1e5ff" d="M 833.726562 699.007812 C 833.726562 699.007812 849.921875 679.210938 862.003906 685.769531 C 862.902344 686.28125 863.675781 687.054688 864.316406 687.953125 C 866.246094 680.5 866.886719 672.785156 862.003906 670.085938 C 851.59375 664.429688 838.097656 678.441406 834.625 682.296875 C 834.753906 691.296875 833.726562 699.007812 833.726562 699.007812 Z M 833.726562 699.007812 " fill-opacity="1" fill-rule="nonzero"/><path fill="#e1e5ff" d="M 802.363281 702.863281 C 802.363281 702.863281 805.191406 654.148438 821.773438 653.761719 C 830.511719 653.632812 833.46875 664.816406 834.371094 676.128906 C 835.140625 663.402344 835.011719 637.824219 821.773438 638.082031 C 805.191406 638.339844 802.363281 687.183594 802.363281 687.183594 C 802.363281 687.183594 779.742188 626.515625 764.320312 632.683594 C 758.664062 634.867188 757.890625 643.867188 759.433594 654.792969 C 760.207031 651.707031 761.75 649.394531 764.320312 648.363281 C 779.742188 642.324219 802.363281 702.863281 802.363281 702.863281 Z M 802.363281 702.863281 " fill-opacity="1" fill-rule="nonzero"/><path fill="#e1e5ff" d="M 739.125 698.621094 C 739.511719 698.234375 739.898438 697.851562 740.285156 697.464844 C 751.59375 688.210938 773.058594 718.671875 773.832031 719.828125 C 773.574219 719.1875 768.5625 706.71875 764.320312 692.453125 C 756.863281 684.484375 746.839844 676.257812 740.15625 681.785156 C 735.398438 685.769531 736.042969 691.9375 739.125 698.621094 Z M 739.125 698.621094 " fill-opacity="1" fill-rule="nonzero"/><g clip-path="url(#d06861b7b6)"><path stroke-linecap="round" transform="matrix(1.285322, 0, 0, 1.285338, 273.197599, -50.730702)" fill="none" stroke-linejoin="round" d="M 381.00074 605.698634 L 465.998893 605.698634 C 469.299379 600.301222 479.301128 583.100009 474.800189 577.799848 C 469.39967 571.499828 455.000312 587.801472 455.000312 587.801472 C 455.000312 587.801472 466.099184 565.199808 458.100216 560.799215 C 448.700213 555.699633 436.100015 571.098669 436.100015 571.098669 C 436.100015 571.098669 440.400372 535.799714 426.800303 536.000294 C 413.899231 536.200873 411.698907 574.198534 411.698907 574.198534 C 411.698907 574.198534 394.099354 527.098818 382.100902 531.800281 C 368.999249 536.899863 389.698706 587.400313 389.698706 587.400313 C 389.698706 587.400313 372.500317 562.601392 363.501478 569.998521 C 352.70044 578.699417 376.001385 601.100501 381.00074 605.698634 Z M 381.00074 605.698634 " stroke="#112544" stroke-width="1.5" stroke-opacity="1" stroke-miterlimit="10"/></g><g clip-path="url(#ee2908e75c)"><path stroke-linecap="round" transform="matrix(1.285322, 0, 0, 1.285338, 273.197599, -50.730702)" fill="none" stroke-linejoin="round" d="M 317.799167 605.698634 L 300.400196 605.698634 " stroke="#112544" stroke-width="1.5" stroke-opacity="1" stroke-miterlimit="10"/></g><g clip-path="url(#24204f3695)"><path stroke-linecap="round" transform="matrix(1.285322, 0, 0, 1.285338, 273.197599, -50.730702)" fill="none" stroke-linejoin="round" d="M 348.700956 605.698634 L 329.299203 605.698634 " stroke="#112544" stroke-width="1.5" stroke-opacity="1" stroke-miterlimit="10"/></g><g clip-path="url(#2c2918a4e2)"><path stroke-linecap="round" transform="matrix(1.285322, 0, 0, 1.285338, 273.197599, -50.730702)" fill="none" stroke-linejoin="round" d="M 507.200264 605.698634 L 537.998723 605.698634 " stroke="#112544" stroke-width="1.5" stroke-opacity="1" stroke-miterlimit="10"/></g><g clip-path="url(#183a4fd025)"><path stroke-linecap="round" transform="matrix(1.285322, 0, 0, 1.285338, 273.197599, -50.730702)" fill="none" stroke-linejoin="round" d="M 550.100505 605.698634 L 562.600412 605.698634 " stroke="#112544" stroke-width="1.5" stroke-opacity="1" stroke-miterlimit="10"/></g></svg>